<?xml version="1.0" encoding="UTF-8" standalone="no"?>
<svg
   version="1.1"
   width="128"
   height="128"
   id="svg3049"
   xmlns:xlink="http://www.w3.org/1999/xlink"
   xmlns="http://www.w3.org/2000/svg"
   xmlns:svg="http://www.w3.org/2000/svg"
   xmlns:rdf="http://www.w3.org/1999/02/22-rdf-syntax-ns#"
   xmlns:cc="http://creativecommons.org/ns#"
   xmlns:dc="http://purl.org/dc/elements/1.1/">
  <defs
     id="defs3051">
    <linearGradient
       id="linearGradient3924">
      <stop
         id="stop3926"
         style="stop-color:#ffffff;stop-opacity:1"
         offset="0" />
      <stop
         id="stop3928"
         style="stop-color:#ffffff;stop-opacity:0.23529412"
         offset="0.06316455" />
      <stop
         id="stop3930"
         style="stop-color:#ffffff;stop-opacity:0.15686275"
         offset="0.95056331" />
      <stop
         id="stop3932"
         style="stop-color:#ffffff;stop-opacity:0.39215687"
         offset="1" />
    </linearGradient>
    <linearGradient
       id="linearGradient3688-166-749-5">
      <stop
         id="stop2883-0"
         style="stop-color:#181818;stop-opacity:1"
         offset="0" />
      <stop
         id="stop2885-5"
         style="stop-color:#181818;stop-opacity:0"
         offset="1" />
    </linearGradient>
    <linearGradient
       id="linearGradient3688-464-309-8">
      <stop
         id="stop2889-9"
         style="stop-color:#181818;stop-opacity:1"
         offset="0" />
      <stop
         id="stop2891-4"
         style="stop-color:#181818;stop-opacity:0"
         offset="1" />
    </linearGradient>
    <linearGradient
       id="linearGradient3702-501-757-0">
      <stop
         id="stop2895-0"
         style="stop-color:#181818;stop-opacity:0"
         offset="0" />
      <stop
         id="stop2897-2"
         style="stop-color:#181818;stop-opacity:1"
         offset="0.5" />
      <stop
         id="stop2899-6"
         style="stop-color:#181818;stop-opacity:0"
         offset="1" />
    </linearGradient>
    <linearGradient
       id="linearGradient3811">
      <stop
         id="stop3813"
         style="stop-color:#000000;stop-opacity:1"
         offset="0" />
      <stop
         id="stop3815"
         style="stop-color:#000000;stop-opacity:0"
         offset="1" />
    </linearGradient>
    <radialGradient
       xlink:href="#linearGradient3688-166-749-5"
       id="radialGradient3946"
       gradientUnits="userSpaceOnUse"
       gradientTransform="matrix(2.003784,0,0,1.4,27.98813,-17.4)"
       cx="4.9929786"
       cy="43.5"
       fx="4.9929786"
       fy="43.5"
       r="2.5" />
    <radialGradient
       xlink:href="#linearGradient3688-464-309-8"
       id="radialGradient3948"
       gradientUnits="userSpaceOnUse"
       gradientTransform="matrix(2.003784,0,0,1.4,-20.01187,-104.4)"
       cx="4.9929786"
       cy="43.5"
       fx="4.9929786"
       fy="43.5"
       r="2.5" />
    <linearGradient
       xlink:href="#linearGradient3702-501-757-0"
       id="linearGradient3950"
       gradientUnits="userSpaceOnUse"
       x1="25.058096"
       y1="47.027729"
       x2="25.058096"
       y2="39.999443" />
    <linearGradient
       xlink:href="#linearGradient3924"
       id="linearGradient3965"
       gradientUnits="userSpaceOnUse"
       gradientTransform="matrix(2.7297298,0,0,2.7297298,-1.5135175,1.488319)"
       x1="23.99999"
       y1="4.999989"
       x2="23.99999"
       y2="43" />
    <radialGradient
       xlink:href="#linearGradient3811"
       id="radialGradient3976"
       gradientUnits="userSpaceOnUse"
       gradientTransform="matrix(1.5563924,0,0,0.16978827,70.270355,102.1321)"
       cx="-4.0287771"
       cy="93.467628"
       fx="-4.0287771"
       fy="93.467628"
       r="35.338131" />
    <linearGradient
       xlink:href="#linearGradient3600-9-51"
       id="linearGradient856-2-3"
       x1="49.093422"
       y1="16.448902"
       x2="49.093422"
       y2="96.29213"
       gradientUnits="userSpaceOnUse"
       gradientTransform="matrix(1.3965646,0,0,1.3965646,-5.1680553,-6.5372613)" />
    <linearGradient
       xlink:href="#linearGradient841"
       id="linearGradient3483"
       gradientUnits="userSpaceOnUse"
       gradientTransform="matrix(-2.5961601,0,0,2.5961601,-81.4778,62.81478)"
       x1="-42.489571"
       y1="8.8164663"
       x2="-42.489571"
       y2="18.626263" />
    <linearGradient
       id="linearGradient841">
      <stop
         id="stop837"
         offset="0"
         style="stop-color:#fff394;stop-opacity:1" />
      <stop
         id="stop839"
         offset="1"
         style="stop-color:#ffffff;stop-opacity:1" />
    </linearGradient>
    <radialGradient
       xlink:href="#linearGradient4304"
       id="radialGradient4310"
       cx="7.8037949"
       cy="73"
       fx="7.8037949"
       fy="73"
       r="30.5"
       gradientUnits="userSpaceOnUse"
       gradientTransform="matrix(1.9850623,3.8276955e-8,0,2.3131061,8.7012924,-24.442018)" />
    <linearGradient
       id="linearGradient4304">
      <stop
         style="stop-color:#ffe6ab;stop-opacity:1"
         offset="0"
         id="stop4306" />
      <stop
         id="stop4312"
         offset="0.82044184"
         style="stop-color:#ffa154;stop-opacity:1" />
      <stop
         style="stop-color:#ffc27d;stop-opacity:0"
         offset="1"
         id="stop4308" />
    </linearGradient>
    <linearGradient
       id="linearGradient4487">
      <stop
         id="stop4489"
         style="stop-color:#feaf9d;stop-opacity:1"
         offset="0" />
      <stop
         id="stop4491"
         style="stop-color:#7239b3;stop-opacity:1"
         offset="1" />
    </linearGradient>
    <linearGradient
       xlink:href="#linearGradient3104-6"
       id="linearGradient9328"
       gradientUnits="userSpaceOnUse"
       gradientTransform="matrix(0.80749686,0,0,0.89471714,-213.62754,26.181163)"
       x1="-51.786404"
       y1="50.786446"
       x2="-51.786404"
       y2="2.9062471" />
    <linearGradient
       id="linearGradient3104-6">
      <stop
         offset="0"
         style="stop-color:#000000;stop-opacity:0.31782946"
         id="stop3106-3" />
      <stop
         offset="1"
         style="stop-color:#000000;stop-opacity:0.24031007"
         id="stop3108-9" />
    </linearGradient>
    <linearGradient
       id="linearGradient3600-9-51">
      <stop
         offset="0"
         style="stop-color:#f4f4f4;stop-opacity:1"
         id="stop3602-0-0" />
      <stop
         offset="1"
         style="stop-color:#dbdbdb;stop-opacity:1"
         id="stop3604-9-04" />
    </linearGradient>
    <linearGradient
       xlink:href="#linearGradient3600-9-51"
       id="linearGradient2107"
       gradientUnits="userSpaceOnUse"
       gradientTransform="matrix(1.3965646,0,0,1.3965646,-5.1680553,-6.5372613)"
       x1="32.369858"
       y1="12.493187"
       x2="55.996288"
       y2="100.66822" />
    <linearGradient
       xlink:href="#linearGradient3104-6"
       id="linearGradient2109"
       gradientUnits="userSpaceOnUse"
       gradientTransform="matrix(0.80749686,0,0,0.89471714,-213.62754,26.181163)"
       x1="-51.786404"
       y1="50.786446"
       x2="-51.786404"
       y2="2.9062471" />
    <linearGradient
       xlink:href="#linearGradient3924"
       id="linearGradient2111"
       gradientUnits="userSpaceOnUse"
       gradientTransform="matrix(2.7297298,0,0,2.7297298,-1.5135175,1.488319)"
       x1="23.99999"
       y1="4.999989"
       x2="23.99999"
       y2="43" />
    <linearGradient
       xlink:href="#linearGradient4487"
       id="linearGradient2619"
       gradientUnits="userSpaceOnUse"
       gradientTransform="matrix(0.32530289,0,0,0.25113452,31.606468,20.370975)"
       x1="93.278282"
       y1="363.34326"
       x2="93.278282"
       y2="7.3609653" />
  </defs>
  <metadata
     id="metadata3054">
    <rdf:RDF>
      <cc:Work
         rdf:about="">
        <dc:format>image/svg+xml</dc:format>
        <dc:type
           rdf:resource="http://purl.org/dc/dcmitype/StillImage" />
      </cc:Work>
    </rdf:RDF>
  </metadata>
  <g
     id="g2125"
     transform="rotate(15,85.537373,64.166402)">
    <rect
       style="color:#000000;font-variation-settings:normal;display:inline;overflow:visible;visibility:visible;vector-effect:none;fill:url(#linearGradient2107);fill-opacity:1;fill-rule:nonzero;stroke:none;stroke-width:0.999996;stroke-linecap:butt;stroke-linejoin:miter;stroke-miterlimit:4;stroke-dasharray:none;stroke-dashoffset:0;stroke-opacity:0.5;marker:none;enable-background:accumulate;stop-color:#000000"
       id="rect5505-21-3-6"
       y="16"
       x="12.999989"
       ry="9.5"
       rx="9.5"
       height="102"
       width="102" />
    <rect
       style="color:#000000;font-variation-settings:normal;display:inline;overflow:visible;visibility:visible;vector-effect:none;fill:none;fill-opacity:1;fill-rule:nonzero;stroke:url(#linearGradient2109);stroke-width:0.999922;stroke-linecap:butt;stroke-linejoin:round;stroke-miterlimit:4;stroke-dasharray:none;stroke-dashoffset:0;stroke-opacity:1;-inkscape-stroke:none;marker:none;enable-background:accumulate;stop-color:#000000"
       id="rect5505-21-3-5-0"
       y="15.501808"
       x="12.499989"
       ry="10"
       rx="10"
       height="103"
       width="103" />
    <rect
       style="fill:none;stroke:url(#linearGradient2111);stroke-width:1;stroke-linecap:round;stroke-linejoin:round;stroke-miterlimit:4;stroke-dasharray:none;stroke-dashoffset:0;stroke-opacity:1"
       id="rect6741-7-6"
       y="16.501808"
       x="13.499989"
       ry="9"
       rx="9"
       height="101"
       width="101" />
    <rect
       style="color:#000000;display:inline;overflow:visible;visibility:visible;opacity:0.5;fill:none;stroke:none;stroke-width:1;stroke-linecap:round;stroke-linejoin:round;stroke-miterlimit:4;stroke-dasharray:none;stroke-dashoffset:0;stroke-opacity:1;marker:none;enable-background:accumulate"
       id="rect5505-21-3-1-2"
       y="15.501808"
       x="12.499989"
       ry="10"
       rx="10"
       height="103"
       width="103" />
    <rect
       style="color:#000000;font-variation-settings:normal;display:inline;overflow:visible;visibility:visible;vector-effect:none;fill:#844e98;fill-opacity:1;fill-rule:nonzero;stroke:none;stroke-width:0.999983;stroke-linecap:butt;stroke-linejoin:miter;stroke-miterlimit:4;stroke-dasharray:none;stroke-dashoffset:0;stroke-opacity:1;-inkscape-stroke:none;marker:none;enable-background:accumulate;stop-color:#000000"
       id="rect5505-21-1-7-0-09-0-2-7-6"
       y="22"
       x="18.999992"
       ry="3.5"
       rx="3.5"
       height="90"
       width="89.999992" />
    <rect
       style="color:#000000;font-variation-settings:normal;display:inline;overflow:visible;visibility:visible;opacity:0.15;vector-effect:none;fill:none;fill-opacity:1;fill-rule:nonzero;stroke:#24004d;stroke-width:0.99999;stroke-linecap:butt;stroke-linejoin:miter;stroke-miterlimit:4;stroke-dasharray:none;stroke-dashoffset:0;stroke-opacity:1;-inkscape-stroke:none;marker:none;enable-background:accumulate;stop-color:#000000"
       id="rect5505-21-1-7-0-09-0-2-9-9-1"
       y="22.499996"
       x="19.499985"
       ry="3"
       rx="3"
       height="89.000008"
       width="89.000008" />
  </g>
  <path
     style="opacity:0.2;color:#000000;fill:url(#radialGradient3976);fill-opacity:1;fill-rule:nonzero;stroke:none;stroke-width:1;marker:none;visibility:visible;display:inline;overflow:visible;enable-background:accumulate"
     id="path3041"
     d="m 119,118.00181 a 55,6 0 0 1 -109.9999975,0 55,6 0 1 1 109.9999975,0 z" />
  <g
     style="display:inline"
     id="g2036"
     transform="matrix(2.6999989,0,0,0.55555607,-0.8000075,94.890689)">
    <g
       style="opacity:0.4"
       id="g3712"
       transform="matrix(1.052632,0,0,1.285713,-1.263158,-13.42854)">
      <rect
         style="fill:url(#radialGradient3946);fill-opacity:1;stroke:none"
         id="rect2801"
         y="40"
         x="38"
         height="7"
         width="5" />
      <rect
         style="fill:url(#radialGradient3948);fill-opacity:1;stroke:none"
         id="rect3696"
         transform="scale(-1,-1)"
         y="-47"
         x="-10"
         height="7"
         width="5" />
      <rect
         style="fill:url(#linearGradient3950);fill-opacity:1;stroke:none"
         id="rect3700"
         y="40"
         x="10"
         height="7.0000005"
         width="28" />
    </g>
  </g>
  <rect
     style="color:#000000;font-variation-settings:normal;display:inline;overflow:visible;visibility:visible;opacity:1;vector-effect:none;fill:url(#linearGradient856-2-3);fill-opacity:1;fill-rule:nonzero;stroke:none;stroke-width:0.999996;stroke-linecap:butt;stroke-linejoin:miter;stroke-miterlimit:4;stroke-dasharray:none;stroke-dashoffset:0;stroke-opacity:0.5;marker:none;enable-background:accumulate;stop-color:#000000;stop-opacity:1"
     id="rect5505-21-3"
     y="16"
     x="12.999989"
     ry="9.5"
     rx="9.5"
     height="102"
     width="102" />
  <rect
     style="color:#000000;font-variation-settings:normal;display:inline;overflow:visible;visibility:visible;vector-effect:none;fill:none;fill-opacity:1;fill-rule:nonzero;stroke:url(#linearGradient9328);stroke-width:0.999922;stroke-linecap:butt;stroke-linejoin:round;stroke-miterlimit:4;stroke-dasharray:none;stroke-dashoffset:0;stroke-opacity:1;marker:none;enable-background:accumulate;stop-color:#000000;opacity:1;-inkscape-stroke:none;stop-opacity:1"
     id="rect5505-21-3-5"
     y="15.501808"
     x="12.499989"
     ry="10"
     rx="10"
     height="103"
     width="103" />
  <rect
     style="opacity:1;fill:none;stroke:url(#linearGradient3965);stroke-width:1;stroke-linecap:round;stroke-linejoin:round;stroke-miterlimit:4;stroke-dasharray:none;stroke-dashoffset:0;stroke-opacity:1"
     id="rect6741-7"
     y="16.501808"
     x="13.499989"
     ry="9"
     rx="9"
     height="101"
     width="101" />
  <rect
     style="color:#000000;display:inline;overflow:visible;visibility:visible;opacity:0.5;fill:none;stroke:none;stroke-width:1;stroke-linecap:round;stroke-linejoin:round;stroke-miterlimit:4;stroke-dasharray:none;stroke-dashoffset:0;stroke-opacity:1;marker:none;enable-background:accumulate"
     id="rect5505-21-3-1"
     y="15.501808"
     x="12.499989"
     ry="10"
     rx="10"
     height="103"
     width="103" />
  <rect
     style="color:#000000;font-variation-settings:normal;display:inline;overflow:visible;visibility:visible;vector-effect:none;fill:url(#linearGradient2619);fill-opacity:1;fill-rule:nonzero;stroke:none;stroke-width:1;stroke-linecap:round;stroke-linejoin:miter;stroke-miterlimit:4;stroke-dasharray:none;stroke-dashoffset:0;stroke-opacity:1;-inkscape-stroke:none;marker:none;enable-background:accumulate;stop-color:#000000;opacity:1;stop-opacity:1"
     id="rect5505-21-1-7-0-09-0-2-7"
     y="22"
     x="18.999992"
     ry="3.5"
     rx="3.5"
     height="90"
     width="89.999992" />
  <rect
     style="color:#000000;font-variation-settings:normal;display:inline;overflow:visible;visibility:visible;opacity:0.3;vector-effect:none;fill:none;fill-opacity:1;fill-rule:nonzero;stroke:#452981;stroke-width:1;stroke-linecap:butt;stroke-linejoin:miter;stroke-miterlimit:4;stroke-dasharray:none;stroke-dashoffset:0;stroke-opacity:1;-inkscape-stroke:none;marker:none;enable-background:accumulate;stop-color:#000000;stop-opacity:1"
     id="rect5505-21-1-7-0-09-0-2-9-9"
     y="22.499996"
     x="19.499985"
     ry="3"
     rx="3"
     height="89.000008"
     width="89.000008" />
  <path
     id="path4427"
     style="opacity:0.7;fill:#452981;fill-opacity:1;stroke-width:1"
     d="m 60.396425,22.000225 c -0.0169,0.169837 0.002,0.336337 0.0806,0.505372 0.26719,0.572816 1.0689,0.654468 2.09473,0.205087 0.91517,-0.400882 1.7946,-0.454908 1.95557,-0.109875 0.16087,0.345075 -0.15413,0.828795 -0.70313,1.069335 -1.30929,0.573536 -1.1559,0.797456 1.97755,2.944337 2.4258,1.662041 2.88494,1.714443 5.45652,0.593261 2.22298,-0.969168 2.8197,-0.994413 2.86378,-0.117187 0.0323,0.641921 0.44787,0.960393 0.98145,0.754394 0.50695,-0.195712 0.36537,0.188813 -0.30761,0.856931 -0.79237,0.786585 -0.92685,1.493276 -0.38087,2.006834 0.71391,0.671479 0.0619,1.135578 -4.28465,3.03955 -5.5737,2.441538 -11.09366,6.357972 -14.42139,10.23193 -2.07073,2.410611 -5.95327,10.528323 -5.50048,11.499013 0.12675,0.271763 1.28783,0.03806 2.57813,-0.527343 1.92935,-0.845167 2.33743,-1.395228 2.30709,-3.090812 l -0.0367,-2.058108 0.97412,1.384278 0.98145,1.391602 0.79834,-2.556153 c 0.74923,-2.376047 0.82612,-2.432849 1.14989,-0.944823 0.21499,0.988049 0.76602,1.567582 1.44287,1.523437 0.81638,-0.05333 1.05705,0.300974 0.96681,1.413573 -0.10988,1.353843 0.13856,1.375398 2.70995,0.249037 2.27713,-0.997488 2.96413,-1.692419 3.52296,-3.610836 l 0.68846,-2.387695 0.92286,1.867676 c 0.87875,1.772961 0.94348,1.779239 1.33301,0.212399 0.35692,-1.435176 0.47664,-1.503794 0.90819,-0.578613 0.35933,0.770295 1.06648,0.808657 2.57812,0.146475 1.94423,-0.85167 1.84463,-0.569685 -1.41356,4.284665 -1.91911,2.859273 -4.62886,8.216876 -6.02784,11.90185 -2.43474,6.413206 -5.02715,17.220516 -4.02099,16.779776 1.38945,-0.60864 7.23238,-5.71385 7.03125,-6.14501 -0.12919,-0.27713 -0.2802,-1.44452 -0.32959,-2.59278 -0.0889,-2.06657 -0.0643,-2.07789 1.15723,-0.93017 1.72498,1.62073 3.11449,0.7538 3.0542,-1.9043 -0.0536,-2.366371 0.82864,-3.39863 1.56006,-1.83105 0.35535,0.76178 0.6651,0.66542 1.75781,-0.520021 0.99323,-1.077544 1.10884,-1.920543 0.44678,-3.339843 -0.81576,-1.748766 -0.77241,-1.845021 0.54932,-1.142575 1.49634,0.795273 2.82911,-0.2013 2.16796,-1.618653 -0.25038,-0.536805 0.25257,-0.96585 1.45751,-1.25244 1.0087,-0.239925 1.81178,-0.212137 1.78712,0.05861 -0.40873,4.481041 -0.48107,15.282752 -0.1245,19.299312 0.42947,4.83953 2.86802,13.59232 3.68408,13.23485 0.19755,-0.0865 1.24361,-3.00818 2.3291,-6.49658 1.25634,-4.03738 1.68311,-6.69503 1.16454,-7.30956 -0.60041,-0.71151 -0.4209,-1.14094 0.70313,-1.6333 1.77124,-0.77589 2.65391,-4.27743 1.37696,-5.47851 -0.62241,-0.58544 -0.5148,-0.82672 0.39549,-0.88623 1.57613,-0.10294 1.38428,-0.52447 -1.14989,-2.43897 -1.99995,-1.510952 -2.0094,-1.528869 -0.2124,-1.010743 1.00119,0.288673 2.02479,0.444583 2.27051,0.336903 0.70543,-0.309041 -0.5985,-2.632498 -1.53808,-2.739261 -0.46555,-0.05291 -0.99338,-0.387453 -1.16455,-0.754394 -0.1974,-0.423255 0.19017,-0.545771 1.04736,-0.329588 2.39042,0.602902 3.30204,-1.103883 1.69922,-3.186036 -0.77772,-1.010276 -1.83027,-2.037003 -2.33642,-2.277831 -0.64335,-0.306113 -0.37189,-0.563269 0.89355,-0.864255 1.1022,-0.262162 1.667,-0.722771 1.45751,-1.171874 -0.1893,-0.405679 0.0337,-0.695614 0.48339,-0.644535 0.4497,0.05108 1.03508,-1.200378 1.30373,-2.7832 0.26861,-1.582814 0.66195,-2.96119 0.8789,-3.061521 6.109855,6.166441 10.562695,35.426585 11.608865,52.617163 h 1.01818 V 60.518271 c -3.09598,-6.448054 -6.36834,-11.998828 -9.323725,-14.956046 -3.6983,-3.700611 -3.8676,-4.24084 -1.05469,-3.40576 1.575145,0.467628 1.678985,0.381334 1.589365,-1.267087 -0.0919,-1.690304 -0.0375,-1.676107 1.3916,0.234375 1.16653,1.55953 2.50343,2.163183 6.15234,2.7832 0.47213,0.08025 0.80486,0.121762 1.24511,0.190425 V 28.841043 c -0.0774,3.22e-4 -0.14943,-0.0079 -0.22706,-0.0075 l -3.25194,0.02925 2.43163,-1.083982 c 0.3618,-0.160913 0.69397,-0.355388 1.00342,-0.549319 0,0 0.0334,-1.054509 0.0334,-1.581777 C 108.98941,23.482734 107.45788,22 105.21633,22 h -5.422885 l -7.00194,3.098143 -0.40285,-2.160644 C 92.337055,22.663037 92.228155,22.317418 92.146975,22 h -10.84715 c -0.004,0.0041 0.006,0.04189 0,0.04395 -0.0217,0.0086 -0.13088,-0.03829 -0.17569,-0.04395 z m 18.14209,19.438468 c 0.0572,-0.0105 0.10913,-0.0067 0.16106,0 0.72724,0.09375 0.8436,1.871669 0.0221,2.88574 -0.54146,0.667376 -1.16743,1.286058 -1.39161,1.384278 -0.58254,0.255187 0.43504,-3.916851 1.02539,-4.204101 0.0641,-0.03112 0.126,-0.05557 0.18318,-0.06592 z" />
  <path
     id="path140458-1"
     style="font-variation-settings:normal;opacity:0.6;vector-effect:none;fill:url(#radialGradient4310);fill-opacity:1;stroke:none;stroke-width:1px;stroke-linecap:butt;stroke-linejoin:miter;stroke-miterlimit:4;stroke-dasharray:none;stroke-dashoffset:0;stroke-opacity:1;-inkscape-stroke:none;marker:none;stop-color:#000000"
     d="m 27.488752,72.830103 a 50.258477,50.258477 0 0 0 -8.48876,0.79833 V 106.375 c 0,3.11626 2.50875,5.625 5.625,5.625 h 51.87008 A 50.258477,50.258477 0 0 0 27.488752,72.830103 Z" />
  <path
     id="path140458"
     style="font-variation-settings:normal;vector-effect:none;fill:url(#linearGradient3483);fill-opacity:1;stroke:none;stroke-width:1;stroke-linecap:round;stroke-linejoin:round;stroke-miterlimit:4;stroke-dasharray:none;stroke-dashoffset:0;stroke-opacity:0.5;-inkscape-stroke:none;marker:none;stop-color:#000000"
     d="M 27.488281,86.035156 C 24.626601,86.064956 21.7785,86.427731 19,87.113281 V 108.5 c 0,1.939 1.561,3.5 3.5,3.5 H 62.828125 C 57.985645,96.554193 43.675391,86.040116 27.488281,86.035156 Z" />
  <path
     id="path2555-7-6-5-2"
     style="color:#000000;font-variation-settings:normal;clip-rule:nonzero;display:inline;overflow:visible;visibility:visible;opacity:0.3;isolation:auto;mix-blend-mode:normal;color-interpolation:sRGB;color-interpolation-filters:linearRGB;solid-color:#000000;solid-opacity:1;vector-effect:none;fill:none;fill-opacity:1;fill-rule:evenodd;stroke:#cc3b02;stroke-width:1;stroke-linecap:butt;stroke-linejoin:round;stroke-miterlimit:4;stroke-dasharray:none;stroke-dashoffset:0;stroke-opacity:1;-inkscape-stroke:none;marker:none;color-rendering:auto;image-rendering:auto;shape-rendering:auto;text-rendering:auto;enable-background:accumulate;stop-color:#000000"
     d="m 19.499992,86.865725 v 21.618635 c 0.0046,1.65476 1.351925,3.01564 2.910383,3.01564 h 40.440046" />
</svg>
