<?xml version="1.0" encoding="UTF-8" standalone="no"?>
<svg
   version="1.1"
   width="16"
   height="16"
   id="svg7357"
   xmlns:xlink="http://www.w3.org/1999/xlink"
   xmlns="http://www.w3.org/2000/svg"
   xmlns:svg="http://www.w3.org/2000/svg"
   xmlns:rdf="http://www.w3.org/1999/02/22-rdf-syntax-ns#"
   xmlns:cc="http://creativecommons.org/ns#"
   xmlns:dc="http://purl.org/dc/elements/1.1/">
  <defs
     id="defs7359">
    <linearGradient
       x1="23.99999"
       y1="7.1818099"
       x2="23.99999"
       y2="40.818172"
       id="linearGradient4224"
       xlink:href="#linearGradient3924-4-8"
       gradientUnits="userSpaceOnUse"
       gradientTransform="matrix(0.2972973,0,0,0.2972973,0.86486973,0.86486734)" />
    <linearGradient
       id="linearGradient3924-4-8">
      <stop
         id="stop3926-0-4"
         style="stop-color:#ffffff;stop-opacity:1"
         offset="0" />
      <stop
         id="stop3928-6-8"
         style="stop-color:#ffffff;stop-opacity:0.23529412"
         offset="0" />
      <stop
         id="stop3930-2-1"
         style="stop-color:#ffffff;stop-opacity:0.15686275"
         offset="1" />
      <stop
         id="stop3932-9-0"
         style="stop-color:#ffffff;stop-opacity:0.39215687"
         offset="1" />
    </linearGradient>
    <linearGradient
       id="linearGradient3104-6">
      <stop
         offset="0"
         style="stop-color:#000000;stop-opacity:0.31782946"
         id="stop3106-3" />
      <stop
         offset="1"
         style="stop-color:#000000;stop-opacity:0.24031007"
         id="stop3108-9" />
    </linearGradient>
    <linearGradient
       id="linearGradient3600-9-51">
      <stop
         offset="0"
         style="stop-color:#f4f4f4;stop-opacity:1"
         id="stop3602-0-0" />
      <stop
         offset="1"
         style="stop-color:#dbdbdb;stop-opacity:1"
         id="stop3604-9-04" />
    </linearGradient>
    <linearGradient
       id="linearGradient4487">
      <stop
         id="stop4489"
         style="stop-color:#feaf9d;stop-opacity:1"
         offset="0" />
      <stop
         id="stop4491"
         style="stop-color:#7239b3;stop-opacity:1"
         offset="1" />
    </linearGradient>
    <radialGradient
       xlink:href="#linearGradient4304"
       id="radialGradient4310"
       cx="7.8037949"
       cy="73"
       fx="7.8037949"
       fy="73"
       r="30.5"
       gradientUnits="userSpaceOnUse"
       gradientTransform="matrix(0.20713775,0,0,0.2413682,1.925349,-1.2374673)" />
    <linearGradient
       id="linearGradient4304">
      <stop
         style="stop-color:#ffe6ab;stop-opacity:1"
         offset="0"
         id="stop4306" />
      <stop
         id="stop4312"
         offset="0.82044184"
         style="stop-color:#ffa154;stop-opacity:1" />
      <stop
         style="stop-color:#ffc27d;stop-opacity:0"
         offset="1"
         id="stop4308" />
    </linearGradient>
    <linearGradient
       xlink:href="#linearGradient841"
       id="linearGradient3483"
       gradientUnits="userSpaceOnUse"
       gradientTransform="matrix(-0.27090473,0,0,0.27090435,-7.48468,7.8676134)"
       x1="-42.489571"
       y1="8.8164663"
       x2="-42.489571"
       y2="18.626263" />
    <linearGradient
       id="linearGradient841">
      <stop
         id="stop837"
         offset="0"
         style="stop-color:#fff394;stop-opacity:1" />
      <stop
         id="stop839"
         offset="1"
         style="stop-color:#ffffff;stop-opacity:1" />
    </linearGradient>
    <linearGradient
       xlink:href="#linearGradient3600-9-51"
       id="linearGradient1353"
       gradientUnits="userSpaceOnUse"
       gradientTransform="matrix(0.63905324,0,0,0.6390533,-1.7988257,-2.4378657)"
       x1="14.970034"
       y1="6.9704485"
       x2="14.970034"
       y2="28.992947" />
    <linearGradient
       xlink:href="#linearGradient3104-6"
       id="linearGradient1652"
       gradientUnits="userSpaceOnUse"
       gradientTransform="matrix(0.80749686,0,0,0.89471714,-83.167339,-23.188219)"
       x1="106.09"
       y1="43.544994"
       x2="106.09"
       y2="28.710991" />
    <linearGradient
       xlink:href="#linearGradient3104-6"
       id="linearGradient2446"
       gradientUnits="userSpaceOnUse"
       gradientTransform="matrix(0.80749686,0,0,0.89471714,-83.167339,-23.188219)"
       x1="106.09"
       y1="43.544994"
       x2="106.09"
       y2="28.710991" />
    <linearGradient
       xlink:href="#linearGradient3600-9-51"
       id="linearGradient2448"
       gradientUnits="userSpaceOnUse"
       gradientTransform="matrix(0.63905324,0,0,0.6390533,-1.7988257,-2.4378657)"
       x1="14.970034"
       y1="6.9704485"
       x2="14.970034"
       y2="28.992947" />
    <linearGradient
       xlink:href="#linearGradient3924-4-8"
       id="linearGradient2450"
       gradientUnits="userSpaceOnUse"
       gradientTransform="matrix(0.2972973,0,0,0.2972973,0.86486973,0.86486734)"
       x1="23.99999"
       y1="7.1818099"
       x2="23.99999"
       y2="40.818172" />
    <linearGradient
       xlink:href="#linearGradient4487"
       id="linearGradient3006"
       gradientUnits="userSpaceOnUse"
       gradientTransform="matrix(0.32530289,0,0,0.25113452,-109.25764,-43.202917)"
       x1="359.89856"
       y1="223.77232"
       x2="359.89856"
       y2="184.27827" />
  </defs>
  <metadata
     id="metadata7362">
    <rdf:RDF>
      <cc:Work
         rdf:about="">
        <dc:format>image/svg+xml</dc:format>
        <dc:type
           rdf:resource="http://purl.org/dc/dcmitype/StillImage" />
      </cc:Work>
    </rdf:RDF>
  </metadata>
  <g
     id="g2464"
     transform="matrix(-0.9645634,0.25845398,0.25845398,0.9645634,13.648877,-1.784138)"
     style="stroke-width:1.00141">
    <rect
       style="color:#000000;font-variation-settings:normal;display:inline;overflow:visible;visibility:visible;vector-effect:none;fill:none;fill-opacity:1;fill-rule:nonzero;stroke:url(#linearGradient2446);stroke-width:1.00133;stroke-linecap:butt;stroke-linejoin:round;stroke-miterlimit:4;stroke-dasharray:none;stroke-dashoffset:0;stroke-opacity:1;-inkscape-stroke:none;marker:none;enable-background:accumulate;stop-color:#000000"
       id="rect5505-21-2-7"
       y="1.4999971"
       x="1.5"
       ry="2.002825"
       rx="2.002825"
       height="13.000003"
       width="13.000003" />
    <rect
       style="color:#000000;font-variation-settings:normal;display:inline;overflow:visible;visibility:visible;vector-effect:none;fill:url(#linearGradient2448);fill-opacity:1;fill-rule:nonzero;stroke:none;stroke-width:1.00141;stroke-linecap:butt;stroke-linejoin:miter;stroke-miterlimit:4;stroke-dasharray:none;stroke-dashoffset:0;stroke-opacity:0.5;marker:none;enable-background:accumulate;stop-color:#000000"
       id="rect5505-21-2-5-9"
       y="1.9999986"
       x="2.0000014"
       ry="1.5021187"
       rx="1.5021187"
       height="12"
       width="12" />
    <rect
       style="opacity:0.35;fill:none;stroke:url(#linearGradient2450);stroke-width:1.00141;stroke-linecap:round;stroke-linejoin:round;stroke-miterlimit:4;stroke-dasharray:none;stroke-dashoffset:0;stroke-opacity:1"
       id="rect6741-0-3-0"
       y="2.4999971"
       x="2.5"
       height="11"
       width="11"
       rx="1.0014125"
       ry="1.0014125" />
  </g>
  <rect
     style="color:#000000;display:inline;overflow:visible;visibility:visible;opacity:1;fill:none;fill-opacity:1;fill-rule:nonzero;stroke:url(#linearGradient1652);stroke-width:0.999922;marker:none;enable-background:accumulate;font-variation-settings:normal;vector-effect:none;stroke-linecap:butt;stroke-linejoin:round;stroke-miterlimit:4;stroke-dasharray:none;stroke-dashoffset:0;stroke-opacity:1;stop-color:#000000;stop-opacity:1;-inkscape-stroke:none"
     id="rect5505-21-2"
     y="1.4999971"
     x="1.5"
     ry="2"
     rx="2"
     height="13.000003"
     width="13.000003" />
  <rect
     style="color:#000000;font-variation-settings:normal;display:inline;overflow:visible;visibility:visible;vector-effect:none;fill:url(#linearGradient1353);fill-opacity:1;fill-rule:nonzero;stroke:none;stroke-width:0.999997;stroke-linecap:butt;stroke-linejoin:miter;stroke-miterlimit:4;stroke-dasharray:none;stroke-dashoffset:0;stroke-opacity:0.5;marker:none;enable-background:accumulate;stop-color:#000000"
     id="rect5505-21-2-5"
     y="1.9999986"
     x="2.0000014"
     ry="1.5"
     rx="1.5"
     height="12"
     width="12" />
  <rect
     style="color:#000000;font-variation-settings:normal;display:inline;overflow:visible;visibility:visible;opacity:1;vector-effect:none;fill:url(#linearGradient3006);fill-opacity:1;fill-rule:nonzero;stroke:none;stroke-width:1;stroke-linecap:round;stroke-linejoin:miter;stroke-miterlimit:4;stroke-dasharray:none;stroke-dashoffset:0;stroke-opacity:1;-inkscape-stroke:none;marker:none;enable-background:accumulate;stop-color:#000000;stop-opacity:1"
     id="rect5505-21-2-5-1"
     y="2.9999971"
     x="3"
     ry="0.5"
     rx="0.5"
     height="10"
     width="10" />
  <rect
     style="opacity:1;fill:none;stroke:url(#linearGradient4224);stroke-width:1;stroke-linecap:round;stroke-linejoin:round;stroke-miterlimit:4;stroke-dasharray:none;stroke-dashoffset:0;stroke-opacity:1"
     id="rect6741-0-3"
     y="2.4999971"
     x="2.5"
     height="11"
     width="11"
     rx="1"
     ry="1" />
  <path
     id="path4427"
     style="opacity:0.7;fill:#452981;fill-opacity:1;stroke-width:0.999996"
     d="m 7.928207,3.0000128 c -0.0018,0.017723 1.82e-4,0.035098 0.0085,0.052732 0.02788,0.059772 0.111536,0.068293 0.21858,0.0214 0.09549,-0.041831 0.187263,-0.04747 0.20406,-0.011463 0.0168,0.036006 -0.01608,0.086483 -0.07338,0.111583 -0.136621,0.059848 -0.120615,0.083213 0.206353,0.3072358 0.25313,0.173431 0.30104,0.1788989 0.56938,0.061906 0.231963,-0.1011309 0.294231,-0.1037651 0.298831,-0.012228 0.0034,0.066982 0.04674,0.1002152 0.102411,0.078718 0.0529,-0.020422 0.03813,0.019703 -0.0321,0.089418 -0.08267,0.082079 -0.09671,0.1558205 -0.03975,0.2094095 0.07448,0.070068 0.0065,0.1184954 -0.447097,0.317171 C 8.362391,4.4806651 7.786394,4.8893374 7.439149,5.2935774 7.223073,5.5451203 6.817935,6.3921879 6.865183,6.4934775 6.878423,6.5218365 6.999565,6.4974475 7.134205,6.4384505 7.335531,6.3502585 7.378114,6.2928611 7.374948,6.11593 l -0.0038,-0.2147596 0.101647,0.1444468 0.102413,0.145211 0.0833,-0.2667296 c 0.07817,-0.2479361 0.0862,-0.2538632 0.11999,-0.098591 0.02244,0.1031011 0.07992,0.1635742 0.150562,0.1589679 0.08519,-0.00555 0.110301,0.031406 0.100883,0.1475034 -0.01146,0.1412711 0.01445,0.1435203 0.282781,0.025987 0.237613,-0.104086 0.309301,-0.1766007 0.367612,-0.3767837 l 0.07184,-0.2491515 0.0963,0.1948885 c 0.09169,0.185005 0.09845,0.1856601 0.139098,0.022163 0.03725,-0.149758 0.04973,-0.156918 0.09476,-0.060377 0.0375,0.080379 0.111284,0.084382 0.269024,0.015285 C 9.554231,5.6151192 9.543838,5.6445442 9.203853,6.1510868 9.003596,6.4494463 8.720838,7.0085021 8.574859,7.393022 8.320796,8.0622273 8.050283,9.1899497 8.155276,9.14396 8.300261,9.080449 8.909959,8.5477306 8.888974,8.5027391 8.875484,8.4738221 8.859734,8.3520064 8.854574,8.2321884 8.845274,8.0165456 8.847874,8.0153638 8.975328,8.1351264 9.155325,8.3042461 9.300317,8.2137834 9.294027,7.9364165 9.288427,7.6894901 9.380487,7.581776 9.456818,7.7453496 c 0.03708,0.07949 0.0694,0.069435 0.183424,-0.054263 0.10364,-0.1124395 0.115706,-0.2004049 0.04662,-0.348506 -0.08512,-0.1824805 -0.08059,-0.1925245 0.05733,-0.1192256 0.15614,0.082985 0.295212,-0.021006 0.226223,-0.1689033 -0.02613,-0.056015 0.02635,-0.1007846 0.15209,-0.1306898 0.105254,-0.025035 0.189055,-0.022137 0.186481,0.00611 -0.04265,0.467588 -0.0502,1.5947256 -0.01299,2.0138454 0.04482,0.5049967 0.299272,1.4183327 0.384426,1.3810317 0.02061,-0.009 0.12977,-0.313898 0.243038,-0.6779048 0.131096,-0.4212939 0.17563,-0.6986147 0.121518,-0.7627398 -0.06265,-0.074244 -0.04392,-0.1190546 0.07338,-0.1704318 0.184822,-0.080963 0.27693,-0.446341 0.143681,-0.5716722 -0.06495,-0.061089 -0.05372,-0.086266 0.04127,-0.092476 0.164466,-0.010741 0.144447,-0.054727 -0.119988,-0.2545013 -0.208694,-0.1576647 -0.209678,-0.1595343 -0.02216,-0.1054689 0.104473,0.030123 0.211284,0.046391 0.236922,0.035155 0.07362,-0.032247 -0.06245,-0.2746958 -0.160495,-0.2858363 -0.04858,-0.00553 -0.103657,-0.04043 -0.121519,-0.078719 -0.02059,-0.044167 0.01985,-0.05695 0.10929,-0.034392 0.249436,0.062912 0.344566,-0.115188 0.17731,-0.3324568 -0.08115,-0.1054209 -0.190983,-0.2125579 -0.243801,-0.237688 -0.06713,-0.031943 -0.03881,-0.058776 0.09325,-0.090182 0.115012,-0.027356 0.173948,-0.075419 0.152089,-0.1222829 -0.01974,-0.042332 0.0035,-0.072586 0.05044,-0.067257 0.04693,0.00532 0.108006,-0.1252571 0.13604,-0.2904216 0.02803,-0.1651635 0.06907,-0.3089943 0.0917,-0.3194639 0.637554,0.6434564 1.102203,3.6966965 1.211368,5.4905003 H 13 V 7.0192887 C 12.676941,6.3464464 12.335475,5.7672338 12.027085,5.4586537 11.641172,5.072502 11.623509,5.0161302 11.917032,5.1032693 c 0.164363,0.048795 0.175196,0.03979 0.165847,-0.1322185 -0.0096,-0.1763797 -0.0039,-0.1748984 0.145209,0.024457 0.121725,0.162734 0.26123,0.225724 0.641986,0.290422 0.04927,0.00838 0.08398,0.012706 0.129926,0.019872 V 3.7138321 c -0.0081,3.36e-5 -0.01559,-8.183e-4 -0.0237,-7.651e-4 l -0.339335,0.00305 0.253736,-0.1131117 c 0.03776,-0.016792 0.07241,-0.037086 0.104706,-0.05732 -0.02147,-0.3053574 -0.271369,-0.5456875 -0.582373,-0.5456875 h -0.373726 l -0.730642,0.3232854 -0.04204,-0.2254591 c -0.0054,-0.028641 -0.01674,-0.064704 -0.02521,-0.097827 h -1.131883 c -3.91e-4,4.343e-4 5.82e-4,0.00436 0,0.00459 -0.0023,9.2e-4 -0.01366,-0.00399 -0.01834,-0.00459 z m 1.893095,2.0283669 c 0.006,-0.00107 0.01138,-6.972e-4 0.01682,0 0.07589,0.00978 0.08802,0.1953051 0.0024,0.3011216 -0.0565,0.06964 -0.121818,0.1341978 -0.145211,0.1444467 -0.06079,0.026629 0.0454,-0.4087159 0.106998,-0.4386899 0.0067,-0.00324 0.01314,-0.00579 0.01912,-0.00688 z" />
  <rect
     style="color:#000000;font-variation-settings:normal;display:inline;overflow:visible;visibility:visible;vector-effect:none;fill:none;fill-opacity:1;fill-rule:nonzero;stroke:#452981;stroke-width:1;stroke-linecap:butt;stroke-linejoin:round;stroke-miterlimit:4;stroke-dasharray:none;stroke-dashoffset:0;stroke-opacity:1;-inkscape-stroke:none;marker:none;enable-background:accumulate;stop-color:#000000;opacity:0.3;stop-opacity:1"
     id="rect5505-21-2-9"
     y="3.499958"
     x="3.4999609"
     height="9.0000782"
     width="9.0000782" />
  <path
     id="path140458-1"
     style="font-variation-settings:normal;opacity:0.6;vector-effect:none;fill:url(#radialGradient4310);fill-opacity:1;stroke:none;stroke-width:0.999996px;stroke-linecap:butt;stroke-linejoin:miter;stroke-miterlimit:4;stroke-dasharray:none;stroke-dashoffset:0;stroke-opacity:1;-inkscape-stroke:none;marker:none;stop-color:#000000"
     d="M 3.885788,8.9126929 A 5.2443834,5.2443757 0 0 0 3,8.9959979 v 3.4170411 c 0,0.325175 0.261785,0.586958 0.58696,0.586958 H 8.999511 A 5.2443834,5.2443757 0 0 0 3.885788,8.9126929 Z" />
  <path
     id="path140458"
     style="font-variation-settings:normal;vector-effect:none;fill:url(#linearGradient3483);fill-opacity:1;stroke:none;stroke-width:0.999996;stroke-linecap:round;stroke-linejoin:round;stroke-miterlimit:4;stroke-dasharray:none;stroke-dashoffset:0;stroke-opacity:0.5;-inkscape-stroke:none;marker:none;stop-color:#000000"
     d="M 3.885788,10.290668 A 3.8658195,3.8658139 0 0 0 3,10.403015 v 2.010024 c 0,0.325175 0.261785,0.586958 0.58696,0.586958 H 7.573385 A 3.8658195,3.8658139 0 0 0 3.885788,10.290668 Z" />
  <path
     id="path2555-7-6-5-2"
     style="color:#000000;font-variation-settings:normal;clip-rule:nonzero;display:inline;overflow:visible;visibility:visible;opacity:0.3;isolation:auto;mix-blend-mode:normal;color-interpolation:sRGB;color-interpolation-filters:linearRGB;solid-color:#000000;solid-opacity:1;vector-effect:none;fill:none;fill-opacity:1;fill-rule:evenodd;stroke:#cc3b02;stroke-width:0.999996;stroke-linecap:butt;stroke-linejoin:round;stroke-miterlimit:4;stroke-dasharray:none;stroke-dashoffset:0;stroke-opacity:1;-inkscape-stroke:none;marker:none;color-rendering:auto;image-rendering:auto;shape-rendering:auto;text-rendering:auto;enable-background:accumulate;stop-color:#000000"
     d="m 3.4999963,10.263754 0.0056,2.092384 c 3.92e-4,0.15008 0.014326,0.143861 0.1644071,0.143861 l 3.9232902,0" />
</svg>
