<?xml version="1.0" encoding="UTF-8" standalone="no"?>
<svg
   version="1.1"
   width="48"
   height="48"
   id="svg6649"
   sodipodi:docname="48.svg"
   inkscape:version="1.1.2 (0a00cf5339, 2022-02-04)"
   xmlns:inkscape="http://www.inkscape.org/namespaces/inkscape"
   xmlns:sodipodi="http://sodipodi.sourceforge.net/DTD/sodipodi-0.dtd"
   xmlns:xlink="http://www.w3.org/1999/xlink"
   xmlns="http://www.w3.org/2000/svg"
   xmlns:svg="http://www.w3.org/2000/svg"
   xmlns:rdf="http://www.w3.org/1999/02/22-rdf-syntax-ns#"
   xmlns:cc="http://creativecommons.org/ns#"
   xmlns:dc="http://purl.org/dc/elements/1.1/">
  <sodipodi:namedview
     id="namedview35"
     pagecolor="#ffffff"
     bordercolor="#666666"
     borderopacity="1.0"
     inkscape:pageshadow="2"
     inkscape:pageopacity="0.0"
     inkscape:pagecheckerboard="0"
     showgrid="false"
     showborder="false"
     inkscape:zoom="1"
     inkscape:cx="26"
     inkscape:cy="27.5"
     inkscape:window-width="2560"
     inkscape:window-height="1379"
     inkscape:window-x="0"
     inkscape:window-y="30"
     inkscape:window-maximized="1"
     inkscape:current-layer="svg6649">
    <inkscape:grid
       type="xygrid"
       id="grid17115" />
  </sodipodi:namedview>
  <defs
     id="defs6651">
    <linearGradient
       id="linearGradient1201">
      <stop
         id="stop1193"
         style="stop-color:#ffffff;stop-opacity:1"
         offset="0" />
      <stop
         id="stop1195"
         style="stop-color:#ffffff;stop-opacity:0.23529412"
         offset="0.06781636" />
      <stop
         id="stop1197"
         style="stop-color:#ffffff;stop-opacity:0.15686275"
         offset="0.94694352" />
      <stop
         id="stop1199"
         style="stop-color:#ffffff;stop-opacity:0.39215687"
         offset="1" />
    </linearGradient>
    <linearGradient
       id="linearGradient3688-166-749">
      <stop
         id="stop2883"
         style="stop-color:#181818;stop-opacity:1"
         offset="0" />
      <stop
         id="stop2885"
         style="stop-color:#181818;stop-opacity:0"
         offset="1" />
    </linearGradient>
    <linearGradient
       id="linearGradient3702-501-757">
      <stop
         id="stop2895"
         style="stop-color:#181818;stop-opacity:0"
         offset="0" />
      <stop
         id="stop2897"
         style="stop-color:#181818;stop-opacity:1"
         offset="0.5" />
      <stop
         id="stop2899"
         style="stop-color:#181818;stop-opacity:0"
         offset="1" />
    </linearGradient>
    <radialGradient
       cx="4.9929786"
       cy="43.5"
       r="2.5"
       fx="4.9929786"
       fy="43.5"
       id="radialGradient3013-6"
       xlink:href="#linearGradient3688-166-749"
       gradientUnits="userSpaceOnUse"
       gradientTransform="matrix(2.003784,0,0,0.89999994,29.98813,4.8500025)" />
    <radialGradient
       cx="4.9929786"
       cy="43.5"
       r="2.5"
       fx="4.9929786"
       fy="43.5"
       id="radialGradient3015-1"
       xlink:href="#linearGradient3688-166-749"
       gradientUnits="userSpaceOnUse"
       gradientTransform="matrix(2.003784,0,0,0.89999994,-18.01187,-83.149997)" />
    <linearGradient
       x1="38.999996"
       y1="5.9999938"
       x2="38.999996"
       y2="41.945408"
       id="linearGradient3058-5"
       xlink:href="#linearGradient1201"
       gradientUnits="userSpaceOnUse"
       gradientTransform="translate(4e-6,1.0000062)" />
    <linearGradient
       xlink:href="#linearGradient3702-501-757"
       id="linearGradient1191"
       gradientUnits="userSpaceOnUse"
       x1="25.058096"
       y1="47.027729"
       x2="25.058096"
       y2="39.999443"
       gradientTransform="matrix(1.1428571,0,0,0.6428571,-3.428569,16.035716)" />
    <linearGradient
       id="linearGradient4574-39-1">
      <stop
         offset="0"
         style="stop-color:#7a0f01;stop-opacity:1"
         id="stop4576-75-8" />
      <stop
         offset="1"
         style="stop-color:#d31807;stop-opacity:1"
         id="stop4578-96-3" />
    </linearGradient>
    <linearGradient
       id="linearGradient4470-86-9">
      <stop
         offset="0"
         style="stop-color:#ec4502;stop-opacity:1"
         id="stop4472-0-4" />
      <stop
         offset="1"
         style="stop-color:#fe7617;stop-opacity:1"
         id="stop4474-9-9" />
    </linearGradient>
    <linearGradient
       id="linearGradient3871-6-7">
      <stop
         offset="0"
         style="stop-color:#0b85e9;stop-opacity:1"
         id="stop3873-3-2" />
      <stop
         offset="1"
         style="stop-color:#69d1ef;stop-opacity:1"
         id="stop3875-4-0" />
    </linearGradient>
    <linearGradient
       id="linearGradient3825-5-8-9">
      <stop
         offset="0"
         style="stop-color:#e89c42;stop-opacity:1"
         id="stop3827-2-3-55" />
      <stop
         offset="1"
         style="stop-color:#faca67;stop-opacity:1"
         id="stop3829-5-0-1" />
    </linearGradient>
    <linearGradient
       id="linearGradient3600-9-51">
      <stop
         offset="0"
         style="stop-color:#f4f4f4;stop-opacity:1"
         id="stop3602-0-0" />
      <stop
         offset="1"
         style="stop-color:#dbdbdb;stop-opacity:1"
         id="stop3604-9-04" />
    </linearGradient>
    <linearGradient
       id="linearGradient3104-6">
      <stop
         offset="0"
         style="stop-color:#000000;stop-opacity:0.31782946"
         id="stop3106-3" />
      <stop
         offset="1"
         style="stop-color:#000000;stop-opacity:0.24031007"
         id="stop3108-9" />
    </linearGradient>
    <linearGradient
       xlink:href="#linearGradient3104-6"
       id="linearGradient3170"
       gradientUnits="userSpaceOnUse"
       gradientTransform="matrix(0.80749686,0,0,0.89471714,10.835333,-0.132171)"
       x1="-51.786404"
       y1="50.786446"
       x2="-51.786404"
       y2="2.9062471" />
    <linearGradient
       inkscape:collect="always"
       xlink:href="#linearGradient3600-9-51"
       id="linearGradient1512"
       gradientUnits="userSpaceOnUse"
       gradientTransform="matrix(0.97142632,0,0,0.93431938,-47.889132,1.4881727)"
       x1="74.838791"
       y1="4.535933"
       x2="74.838791"
       y2="49.779099" />
    <linearGradient
       inkscape:collect="always"
       xlink:href="#linearGradient3104-6"
       id="linearGradient9328"
       gradientUnits="userSpaceOnUse"
       gradientTransform="matrix(0.80749686,0,0,0.89471714,10.835333,-0.132171)"
       x1="-51.786404"
       y1="50.786446"
       x2="-51.786404"
       y2="2.9062471" />
    <linearGradient
       inkscape:collect="always"
       xlink:href="#linearGradient3600-9-51"
       id="linearGradient9330"
       gradientUnits="userSpaceOnUse"
       gradientTransform="matrix(0.97142632,0,0,0.93431938,-47.889132,1.4881727)"
       x1="74.838791"
       y1="4.535933"
       x2="74.838791"
       y2="49.779099" />
    <linearGradient
       inkscape:collect="always"
       xlink:href="#linearGradient1201"
       id="linearGradient9332"
       gradientUnits="userSpaceOnUse"
       gradientTransform="translate(4e-6,1.0000062)"
       x1="38.999996"
       y1="5.9999938"
       x2="38.999996"
       y2="41.945408" />
    <linearGradient
       inkscape:collect="always"
       xlink:href="#linearGradient4470-86-9"
       id="linearGradient9796"
       gradientUnits="userSpaceOnUse"
       gradientTransform="matrix(0.15260753,0.011922,-0.01258467,0.14528099,47.06782,24.419339)"
       x1="-211.28862"
       y1="88.750069"
       x2="-208.49672"
       y2="75.190559" />
    <linearGradient
       inkscape:collect="always"
       xlink:href="#linearGradient4574-39-1"
       id="linearGradient9798"
       gradientUnits="userSpaceOnUse"
       gradientTransform="matrix(0.15070105,0,0,0.15182597,40.32919,21.187158)"
       x1="-184.92441"
       y1="113.97943"
       x2="-175.25337"
       y2="88.801025" />
    <linearGradient
       inkscape:collect="always"
       xlink:href="#linearGradient3825-5-8-9"
       id="linearGradient9800"
       gradientUnits="userSpaceOnUse"
       gradientTransform="matrix(0.23682313,0,0,0.23897582,54.81517,16.241526)"
       x1="-96.557358"
       y1="107.15514"
       x2="-96.557358"
       y2="39.991924" />
    <linearGradient
       inkscape:collect="always"
       xlink:href="#linearGradient3871-6-7"
       id="linearGradient9802"
       gradientUnits="userSpaceOnUse"
       gradientTransform="matrix(0.23682313,0,0,0.23897582,54.81517,16.241526)"
       x1="-107.45584"
       y1="-37.385227"
       x2="-107.45584"
       y2="38.561256" />
    <linearGradient
       inkscape:collect="always"
       xlink:href="#linearGradient4470-86-9"
       id="linearGradient9804"
       gradientUnits="userSpaceOnUse"
       gradientTransform="matrix(0.15260753,0.011922,-0.01258467,0.14528099,47.06782,24.419339)"
       x1="-211.28862"
       y1="88.750069"
       x2="-208.49672"
       y2="75.190559" />
    <linearGradient
       inkscape:collect="always"
       xlink:href="#linearGradient4574-39-1"
       id="linearGradient9806"
       gradientUnits="userSpaceOnUse"
       gradientTransform="matrix(0.15070105,0,0,0.15182597,40.32919,21.187158)"
       x1="-184.92441"
       y1="113.97943"
       x2="-175.25337"
       y2="88.801025" />
  </defs>
  <metadata
     id="metadata6654">
    <rdf:RDF>
      <cc:Work
         rdf:about="">
        <dc:format>image/svg+xml</dc:format>
        <dc:type
           rdf:resource="http://purl.org/dc/dcmitype/StillImage" />
      </cc:Work>
    </rdf:RDF>
  </metadata>
  <g
     id="g9344"
     transform="matrix(-0.96592583,0.25881905,0.25881905,0.96592583,40.711775,-6.8753208)">
    <rect
       style="color:#000000;font-variation-settings:normal;display:inline;overflow:visible;visibility:visible;vector-effect:none;fill:none;fill-opacity:1;fill-rule:nonzero;stroke:url(#linearGradient9328);stroke-width:0.999922;stroke-linecap:butt;stroke-linejoin:round;stroke-miterlimit:4;stroke-dasharray:none;stroke-dashoffset:0;stroke-opacity:1;-inkscape-stroke:none;marker:none;enable-background:accumulate;stop-color:#000000"
       id="rect5505-21-1-9"
       y="5.4999952"
       x="4.5000153"
       ry="4"
       rx="4"
       height="39"
       width="39" />
    <rect
       style="color:#000000;font-variation-settings:normal;display:inline;overflow:visible;visibility:visible;vector-effect:none;fill:url(#linearGradient9330);fill-opacity:1;fill-rule:nonzero;stroke:none;stroke-width:1;stroke-linecap:butt;stroke-linejoin:miter;stroke-miterlimit:4;stroke-dasharray:none;stroke-dashoffset:0;stroke-opacity:1;-inkscape-stroke:none;marker:none;enable-background:accumulate;stop-color:#000000"
       id="rect5505-21-1-7-2"
       y="6"
       x="5"
       ry="3.5"
       rx="3.5"
       height="38"
       width="38" />
    <rect
       style="color:#000000;font-variation-settings:normal;display:inline;overflow:visible;visibility:visible;vector-effect:none;fill:#3c92bb;fill-opacity:1;fill-rule:nonzero;stroke:none;stroke-width:1;stroke-linecap:butt;stroke-linejoin:miter;stroke-miterlimit:4;stroke-dasharray:none;stroke-dashoffset:0;stroke-opacity:1;-inkscape-stroke:none;marker:none;enable-background:accumulate;stop-color:#000000"
       id="rect5505-21-1-7-0-0"
       y="8"
       x="7"
       ry="1.5"
       rx="1.5"
       height="34"
       width="34" />
    <rect
       style="color:#000000;font-variation-settings:normal;display:inline;overflow:visible;visibility:visible;opacity:0.3;vector-effect:none;fill:none;fill-opacity:1;fill-rule:nonzero;stroke:#004466;stroke-width:0.999997;stroke-linecap:butt;stroke-linejoin:miter;stroke-miterlimit:4;stroke-dasharray:none;stroke-dashoffset:0;stroke-opacity:1;-inkscape-stroke:none;marker:none;enable-background:accumulate;stop-color:#000000"
       id="rect5505-21-1-7-0-3-2"
       y="8.4999981"
       x="7.4999986"
       ry="1"
       rx="1"
       height="33"
       width="33" />
    <rect
       style="fill:none;stroke:url(#linearGradient9332);stroke-width:1;stroke-linecap:round;stroke-linejoin:round;stroke-miterlimit:4;stroke-dasharray:none;stroke-dashoffset:0;stroke-opacity:1"
       id="rect6741-2-3"
       y="6.4999952"
       x="5.5000153"
       ry="3"
       rx="3"
       height="37"
       width="37" />
  </g>
  <rect
     style="opacity:0.4;fill:url(#radialGradient3013-6);fill-opacity:1;stroke:none;stroke-width:0.862764"
     id="rect2801-3-7"
     y="41.75"
     x="40"
     height="4.4999995"
     width="5" />
  <rect
     style="opacity:0.4;fill:url(#radialGradient3015-1);fill-opacity:1;stroke:none;stroke-width:0.862764"
     id="rect3696-6-3"
     transform="scale(-1)"
     y="-46.25"
     x="-8"
     height="4.4999995"
     width="5" />
  <rect
     style="opacity:0.4;fill:url(#linearGradient1191);fill-opacity:1;stroke:none;stroke-width:0.862764"
     id="rect3700-4-6"
     y="41.75"
     x="8"
     height="4.5"
     width="32" />
  <rect
     style="color:#000000;display:inline;overflow:visible;visibility:visible;opacity:1;fill:none;fill-opacity:1;fill-rule:nonzero;stroke:url(#linearGradient3170);stroke-width:0.999922;stroke-opacity:1;marker:none;enable-background:accumulate;font-variation-settings:normal;vector-effect:none;stroke-linecap:butt;stroke-linejoin:round;stroke-miterlimit:4;stroke-dasharray:none;stroke-dashoffset:0;-inkscape-stroke:none;stop-color:#000000;stop-opacity:1"
     id="rect5505-21-1"
     y="5.4999952"
     x="4.5000153"
     ry="4"
     rx="4"
     height="39"
     width="39" />
  <rect
     style="color:#000000;display:inline;overflow:visible;visibility:visible;fill:url(#linearGradient1512);fill-opacity:1;fill-rule:nonzero;stroke:none;stroke-width:1;stroke-opacity:1;marker:none;enable-background:accumulate;font-variation-settings:normal;opacity:1;vector-effect:none;stroke-linecap:butt;stroke-linejoin:miter;stroke-miterlimit:4;stroke-dasharray:none;stroke-dashoffset:0;-inkscape-stroke:none;stop-color:#000000;stop-opacity:1"
     id="rect5505-21-1-7"
     y="6"
     x="5"
     ry="3.5"
     rx="3.5"
     height="38"
     width="38" />
  <rect
     style="color:#000000;font-variation-settings:normal;display:inline;overflow:visible;visibility:visible;opacity:1;vector-effect:none;fill:url(#linearGradient9800);fill-opacity:1;fill-rule:nonzero;stroke:none;stroke-width:10;stroke-linecap:butt;stroke-linejoin:miter;stroke-miterlimit:4;stroke-dasharray:none;stroke-dashoffset:0;stroke-opacity:1;-inkscape-stroke:none;marker:none;enable-background:accumulate;stop-color:#000000;stop-opacity:1"
     id="rect5505-21-1-7-0"
     y="8"
     x="7"
     ry="1.5"
     rx="1.5"
     height="34"
     width="34" />
  <path
     id="rect3055-2-6-8-5-4-8-1"
     style="color:#000000;font-variation-settings:normal;display:inline;overflow:visible;visibility:visible;opacity:0.05;vector-effect:none;fill:#920900;fill-opacity:1;fill-rule:nonzero;stroke:none;stroke-width:6.62904;stroke-linecap:butt;stroke-linejoin:miter;stroke-miterlimit:4;stroke-dasharray:none;stroke-dashoffset:0;stroke-opacity:1;-inkscape-stroke:none;marker:none;enable-background:accumulate;stop-color:#000000"
     d="m 31.240234,25.639 c -4.48569,0 -5.276921,2.476562 -8.794922,2.476562 -3.518,0 -5.616029,-1.71289 -8.40625,-1.71289 -2.79021,0 -4.4246526,1.361328 -6.0957026,1.361328 C 7.6141089,27.764 7.2991148,27.71393 7,27.640953 v 1.285156 0.361328 c 0.6141661,0.105651 1.3060121,0.179688 2.0878906,0.179688 3.1662014,0 2.7149464,-1.074219 5.4414064,-1.074219 2.72644,0 4.331758,1.755859 8.017578,1.75586 4.56532,0 5.614532,-2.828125 9.226563,-2.828126 2.82047,0 3.030635,1.546875 6.134765,1.546876 1.505893,0 2.28916,-0.419483 3.091797,-0.851563 v -0.361328 -1.117188 c -0.743137,0.344341 -1.54917,0.669922 -2.886719,0.669922 -2.80884,0 -2.387367,-1.568358 -6.873047,-1.568359 z" />
  <rect
     style="color:#000000;font-variation-settings:normal;display:inline;overflow:visible;visibility:visible;opacity:0.15;vector-effect:none;fill:none;fill-opacity:1;fill-rule:nonzero;stroke:#920900;stroke-width:0.999997;stroke-linecap:butt;stroke-linejoin:miter;stroke-miterlimit:4;stroke-dasharray:none;stroke-dashoffset:0;stroke-opacity:1;-inkscape-stroke:none;marker:none;enable-background:accumulate;stop-color:#000000"
     id="rect5505-21-1-7-0-3-8"
     y="8.4999981"
     x="7.4999986"
     ry="1"
     rx="1"
     height="33"
     width="33" />
  <rect
     style="opacity:1;fill:none;stroke:url(#linearGradient3058-5);stroke-width:1;stroke-linecap:round;stroke-linejoin:round;stroke-miterlimit:4;stroke-dasharray:none;stroke-dashoffset:0;stroke-opacity:1"
     id="rect6741-2"
     y="6.4999952"
     x="5.5000153"
     ry="3"
     rx="3"
     height="37"
     width="37" />
  <path
     d="m 12.683614,30.378933 c -0.150379,-0.01138 -0.319456,1.98e-4 -0.489927,0.05771 -0.665408,0.224494 -0.741716,0.666736 -0.80113,0.878988 -0.05941,0.212252 -0.0717,0.377223 -0.08136,0.551276 -0.01932,0.348105 -0.0043,0.713997 0.01211,1.079645 0.01345,0.300339 0.02544,0.56691 0.03133,0.802329 -0.229457,0.0532 -0.482339,0.110335 -0.773557,0.172676 -0.364989,0.07814 -0.733971,0.156339 -1.074296,0.263452 -0.170162,0.05356 -0.330008,0.107609 -0.533092,0.223457 -0.101542,0.05792 -0.218491,0.126807 -0.355409,0.278476 -0.136918,0.151668 -0.302801,0.436899 -0.293358,0.781535 0.01844,0.672799 0.43518,0.876243 0.629172,0.995298 0.193992,0.119055 0.350464,0.179634 0.521591,0.241861 0.342256,0.124451 0.719797,0.225339 1.090724,0.322888 0.305709,0.0804 0.573529,0.156153 0.81127,0.223354 -0.01781,0.223909 -0.04243,0.471373 -0.07004,0.753273 -0.03477,0.354921 -0.0688,0.70925 -0.067,1.05061 9.01e-4,0.17068 0.0048,0.333438 0.05773,0.553 0.02645,0.109782 0.06216,0.235716 0.171246,0.406463 0.109089,0.170747 0.338012,0.412726 0.685558,0.510632 0.677118,0.190749 1.010082,-0.120417 1.189146,-0.259048 0.179063,-0.138633 0.289341,-0.267081 0.404572,-0.402617 0.23046,-0.271068 0.445236,-0.580359 0.657668,-0.885626 0.174715,-0.251069 0.330046,-0.473081 0.470696,-0.667125 0.218487,0.08502 0.458915,0.182845 0.73305,0.294947 0.343453,0.140449 0.690938,0.283666 1.032366,0.386891 0.170714,0.05161 0.330282,0.0978 0.565985,0.117348 0.11785,0.0098 0.259242,0.01848 0.463329,-0.02779 0.204087,-0.04628 0.51229,-0.181112 0.71726,-0.465032 0.39977,-0.55376 0.193534,-0.956541 0.110215,-1.161503 -0.08332,-0.204961 -0.174769,-0.341717 -0.274639,-0.487672 -0.199744,-0.291909 -0.444133,-0.58107 -0.683498,-0.86699 -0.19657,-0.234801 -0.366521,-0.443384 -0.516777,-0.629999 0.152712,-0.171547 0.323163,-0.358412 0.520059,-0.571853 0.246949,-0.267701 0.495172,-0.536164 0.704227,-0.813428 0.104528,-0.138632 0.203384,-0.272341 0.296016,-0.479657 0.04632,-0.103659 0.0966,-0.226202 0.113665,-0.425342 0.0171,-0.199138 -0.02267,-0.522549 -0.243128,-0.796022 -0.429824,-0.5332 -0.892258,-0.465256 -1.122633,-0.453363 -0.230375,0.01189 -0.398019,0.05166 -0.574932,0.09678 -0.353824,0.09023 -0.72097,0.217178 -1.081375,0.345171 -0.297081,0.105505 -0.558222,0.198072 -0.79214,0.276353 -0.123854,-0.190933 -0.257475,-0.405133 -0.4095,-0.649043 -0.190617,-0.30583 -0.383233,-0.612843 -0.595296,-0.887524 -0.106031,-0.137341 -0.203333,-0.265879 -0.381867,-0.413776 -0.08927,-0.07395 -0.198656,-0.159477 -0.392435,-0.236342 -0.09689,-0.03843 -0.231189,-0.07328 -0.381569,-0.08466 z m 1.738343,2.380043 c 0.0051,-7.4e-4 0.03564,0.0081 0.04253,0.0079 -0.01226,0.003 -0.04702,0.01264 -0.05403,0.01406 -0.01725,0.0035 -0.03015,-0.01594 0.0115,-0.02195 z m 0.63521,0.205029 c 0.05292,0.04207 0.04947,0.0609 0.03899,0.04875 -0.0047,-0.0055 -0.02954,-0.03663 -0.03899,-0.04875 z m -3.293343,0.661438 c 0.04271,-0.01926 0.04635,0.0066 0.0326,0.01169 -0.0072,0.0027 -0.04817,0.01282 -0.06396,0.01786 0.0062,-0.0037 0.02628,-0.02725 0.03137,-0.02954 z m -0.408456,0.502869 c -7.88e-4,0.01264 8.35e-4,0.04783 4.2e-5,0.05485 -0.0021,0.01891 -0.01895,0.0046 -4.2e-5,-0.05485 z m 5.401792,0.993343 c -0.0098,-0.01618 0.01321,-0.01332 0.03461,0.04384 -0.0072,-0.01069 -0.03091,-0.03776 -0.03461,-0.04384 z m 0.01648,0.641193 c -0.02554,0.05963 -0.04702,0.06516 -0.0381,0.05187 0.0041,-0.0061 0.02871,-0.0393 0.0381,-0.05187 z m -5.376892,1.047159 c 4.42e-4,0.0073 -8.83e-4,0.04815 -7.45e-4,0.06393 -0.01656,-0.06328 -2.52e-4,-0.07974 7.45e-4,-0.06393 z m 0.360137,0.553772 c 0.01156,0.0044 0.04482,0.015 0.05128,0.01771 0.01823,0.0077 0.0024,0.01773 -0.05128,-0.01771 z m 3.390654,0.598549 c 0.01343,-0.01421 0.01548,0.0093 -0.03771,0.04733 0.0095,-0.01095 0.03234,-0.04165 0.03771,-0.04733 z m -0.698826,0.196798 c 0.0078,0.0019 0.04828,0.01831 0.06519,0.02338 -0.0678,-0.0046 -0.08123,-0.02733 -0.06519,-0.02338 z"
     id="path5297-0"
     style="color:#000000;display:inline;overflow:visible;visibility:visible;opacity:0.05;fill:#000000;fill-opacity:1;fill-rule:nonzero;stroke:none;stroke-width:6.62904;marker:none;enable-background:accumulate" />
  <path
     d="m 12.563761,31.429984 c -0.366059,0.1235 0.06123,2.779771 -0.170472,3.076512 -0.223714,0.286519 -2.976221,0.576994 -2.966444,0.933799 0.01013,0.369534 2.800739,0.798876 3.025512,1.100231 0.217031,0.290974 -0.343678,2.875524 0.01581,2.976796 0.372317,0.104885 1.666208,-2.285438 2.036822,-2.395931 0.357847,-0.106686 2.763256,1.19401 2.975657,0.899795 0.219979,-0.304713 -1.768631,-2.208975 -1.764353,-2.578618 0.0041,-0.35691 2.05083,-2.134129 1.822611,-2.417236 -0.236362,-0.293208 -2.759541,0.915764 -3.12751,0.797804 -0.355292,-0.113895 -1.494187,-2.512397 -1.847636,-2.393152 z"
     id="path5640-3-6"
     style="color:#000000;display:inline;overflow:visible;visibility:visible;opacity:0.15;fill:#000000;fill-opacity:1;fill-rule:nonzero;stroke:none;stroke-width:6.62904;marker:none;enable-background:accumulate" />
  <path
     d="m 12.562104,30.429385 c 0.35345,-0.119246 1.49562,2.281754 1.850914,2.39565 0.367969,0.11796 2.888802,-1.093705 3.125163,-0.800498 0.228219,0.283107 -1.817986,2.060055 -1.822119,2.416964 -0.0043,0.369644 1.984259,2.277038 1.764279,2.581749 -0.212401,0.294215 -2.619197,-1.00857 -2.977043,-0.901884 -0.370614,0.110493 -1.662463,2.500992 -2.03478,2.396108 -0.359491,-0.101272 0.199233,-2.683386 -0.0178,-2.97436 C 12.225944,35.241759 9.439,34.811775 9.428876,34.44224 c -0.0098,-0.356803 2.742331,-0.649852 2.966045,-0.936371 0.231696,-0.29674 -0.19888,-2.952984 0.167178,-3.076484 z"
     id="path4468-6-5"
     style="color:#000000;display:inline;overflow:visible;visibility:visible;fill:url(#linearGradient9796);fill-opacity:1;stroke:none;stroke-width:1.49402;marker:none;enable-background:accumulate" />
  <path
     d="m 12.58606,30.424824 -0.10361,0.09963 c -7.4e-4,0.0023 -0.004,0.003 -0.004,0.0045 -0.20799,0.503329 0.12521,2.705926 -0.0848,2.974841 -0.009,0.01125 -0.0215,0.02671 -0.0377,0.03796 l 0.0848,0.05694 c 1.6984,0.5087 0.21182,-3.068201 0.16953,-3.169363 -0.008,-0.0015 -0.016,-0.0053 -0.0235,-0.0045 z"
     id="path4480-14-6"
     style="opacity:0.5;fill:#9d0f06;fill-opacity:1;stroke:none" />
  <path
     d="m 9.967629,34.381789 c -0.33411,0.003 -0.52745,0.01898 -0.52745,0.01898 v 0.0045 0.07592 c 0.19596,0.360184 2.792631,0.772283 3.009311,1.062783 0.21703,0.290973 -0.34065,2.873566 0.0188,2.974834 0.37231,0.104891 1.66385,-2.285507 2.03446,-2.396002 0.35561,-0.106016 2.73347,1.178866 2.97164,0.906214 l -0.004,-0.0045 C 15.46525,34.56641 11.41583,34.36951 9.968039,34.381791 Z"
     id="path4517-2-9"
     style="opacity:0.75;fill:url(#linearGradient9798);fill-opacity:1;stroke:none" />
  <path
     d="m 12.683614,30.378933 c -0.150379,-0.01138 -0.319456,1.98e-4 -0.489927,0.05771 -0.665408,0.224494 -0.741716,0.666736 -0.80113,0.878988 -0.05941,0.212252 -0.0717,0.377223 -0.08136,0.551276 -0.01932,0.348105 -0.0043,0.713997 0.01211,1.079645 0.01345,0.300339 0.02544,0.56691 0.03133,0.802329 -0.229457,0.0532 -0.482339,0.110335 -0.773557,0.172676 -0.364989,0.07814 -0.733971,0.156339 -1.074296,0.263452 -0.170162,0.05356 -0.330008,0.107609 -0.533092,0.223457 -0.101542,0.05792 -0.218491,0.126807 -0.355409,0.278476 -0.136918,0.151668 -0.302801,0.436899 -0.293358,0.781535 0.01844,0.672799 0.43518,0.876243 0.629172,0.995298 0.193992,0.119055 0.350464,0.179634 0.521591,0.241861 0.342256,0.124451 0.719797,0.225339 1.090724,0.322888 0.305709,0.0804 0.573529,0.156153 0.81127,0.223354 -0.01781,0.223909 -0.04243,0.471373 -0.07004,0.753273 -0.03477,0.354921 -0.0688,0.70925 -0.067,1.05061 9.01e-4,0.17068 0.0048,0.333438 0.05773,0.553 0.02645,0.109782 0.06216,0.235716 0.171246,0.406463 0.109089,0.170747 0.338012,0.412726 0.685558,0.510632 0.677118,0.190749 1.010082,-0.120417 1.189146,-0.259048 0.179063,-0.138633 0.289341,-0.267081 0.404572,-0.402617 0.23046,-0.271068 0.445236,-0.580359 0.657668,-0.885626 0.174715,-0.251069 0.330046,-0.473081 0.470696,-0.667125 0.218487,0.08502 0.458915,0.182845 0.73305,0.294947 0.343453,0.140449 0.690938,0.283666 1.032366,0.386891 0.170714,0.05161 0.330282,0.0978 0.565985,0.117348 0.11785,0.0098 0.259242,0.01848 0.463329,-0.02779 0.204087,-0.04628 0.51229,-0.181112 0.71726,-0.465032 0.39977,-0.55376 0.193534,-0.956541 0.110215,-1.161503 -0.08332,-0.204961 -0.174769,-0.341717 -0.274639,-0.487672 -0.199744,-0.291909 -0.444133,-0.58107 -0.683498,-0.86699 -0.19657,-0.234801 -0.366521,-0.443384 -0.516777,-0.629999 0.152712,-0.171547 0.323163,-0.358412 0.520059,-0.571853 0.246949,-0.267701 0.495172,-0.536164 0.704227,-0.813428 0.104528,-0.138632 0.203384,-0.272341 0.296016,-0.479657 0.04632,-0.103659 0.0966,-0.226202 0.113665,-0.425342 0.0171,-0.199138 -0.02267,-0.522549 -0.243128,-0.796022 -0.429824,-0.5332 -0.892258,-0.465256 -1.122633,-0.453363 -0.230375,0.01189 -0.398019,0.05166 -0.574932,0.09678 -0.353824,0.09023 -0.72097,0.217178 -1.081375,0.345171 -0.297081,0.105505 -0.558222,0.198072 -0.79214,0.276353 -0.123854,-0.190933 -0.257475,-0.405133 -0.4095,-0.649043 -0.190617,-0.30583 -0.383233,-0.612843 -0.595296,-0.887524 -0.106031,-0.137341 -0.203333,-0.265879 -0.381867,-0.413776 -0.08927,-0.07395 -0.198656,-0.159477 -0.392435,-0.236342 -0.09689,-0.03843 -0.231189,-0.07328 -0.381569,-0.08466 z m 1.738343,2.380043 c 0.0051,-7.4e-4 0.03564,0.0081 0.04253,0.0079 -0.01226,0.003 -0.04702,0.01264 -0.05403,0.01406 -0.01725,0.0035 -0.03015,-0.01594 0.0115,-0.02195 z m 0.63521,0.205029 c 0.05292,0.04207 0.04947,0.0609 0.03899,0.04875 -0.0047,-0.0055 -0.02954,-0.03663 -0.03899,-0.04875 z m -3.293343,0.661438 c 0.04271,-0.01926 0.04635,0.0066 0.0326,0.01169 -0.0072,0.0027 -0.04817,0.01282 -0.06396,0.01786 0.0062,-0.0037 0.02628,-0.02725 0.03137,-0.02954 z m -0.408456,0.502869 c -7.88e-4,0.01264 8.35e-4,0.04783 4.2e-5,0.05485 -0.0021,0.01891 -0.01895,0.0046 -4.2e-5,-0.05485 z m 5.401792,0.993343 c -0.0098,-0.01618 0.01321,-0.01332 0.03461,0.04384 -0.0072,-0.01069 -0.03091,-0.03776 -0.03461,-0.04384 z m 0.01648,0.641193 c -0.02554,0.05963 -0.04702,0.06516 -0.0381,0.05187 0.0041,-0.0061 0.02871,-0.0393 0.0381,-0.05187 z m -5.376892,1.047159 c 4.42e-4,0.0073 -8.83e-4,0.04815 -7.45e-4,0.06393 -0.01656,-0.06328 -2.52e-4,-0.07974 7.45e-4,-0.06393 z m 0.360137,0.553772 c 0.01156,0.0044 0.04482,0.015 0.05128,0.01771 0.01823,0.0077 0.0024,0.01773 -0.05128,-0.01771 z m 3.390654,0.598549 c 0.01343,-0.01421 0.01548,0.0093 -0.03771,0.04733 0.0095,-0.01095 0.03234,-0.04165 0.03771,-0.04733 z m -0.698826,0.196798 c 0.0078,0.0019 0.04828,0.01831 0.06519,0.02338 -0.0678,-0.0046 -0.08123,-0.02733 -0.06519,-0.02338 z"
     id="path5297-6-7"
     style="color:#000000;display:inline;overflow:visible;visibility:visible;opacity:0.05;fill:#920900;fill-opacity:1;fill-rule:nonzero;stroke:none;stroke-width:6.62904;marker:none;enable-background:accumulate" />
  <path
     d="m 12.563761,31.429984 c -0.366059,0.1235 0.06123,2.779771 -0.170472,3.076512 -0.223714,0.286519 -2.976221,0.576994 -2.966444,0.933799 0.01013,0.369534 2.800739,0.798876 3.025512,1.100231 0.217031,0.290974 -0.343678,2.875524 0.01581,2.976796 0.372317,0.104885 1.666208,-2.285438 2.036822,-2.395931 0.357847,-0.106686 2.763256,1.19401 2.975657,0.899795 0.219979,-0.304713 -1.768631,-2.208975 -1.764353,-2.578618 0.0041,-0.35691 2.05083,-2.134129 1.822611,-2.417236 -0.236362,-0.293208 -2.759541,0.915764 -3.12751,0.797804 -0.355292,-0.113895 -1.494187,-2.512397 -1.847636,-2.393152 z"
     id="path5640-3-4-4"
     style="color:#000000;display:inline;overflow:visible;visibility:visible;opacity:0.15;fill:#920900;fill-opacity:1;fill-rule:nonzero;stroke:none;stroke-width:6.62904;marker:none;enable-background:accumulate" />
  <path
     d="m 12.562104,30.429385 c 0.35345,-0.119246 1.49562,2.281754 1.850914,2.39565 0.367969,0.11796 2.888802,-1.093705 3.125163,-0.800498 0.228219,0.283107 -1.817986,2.060055 -1.822119,2.416964 -0.0043,0.369644 1.984259,2.277038 1.764279,2.581749 -0.212401,0.294215 -2.619197,-1.00857 -2.977043,-0.901884 -0.370614,0.110493 -1.662463,2.500992 -2.03478,2.396108 -0.359491,-0.101272 0.199233,-2.683386 -0.0178,-2.97436 C 12.225944,35.241759 9.439,34.811775 9.428876,34.44224 c -0.0098,-0.356803 2.742331,-0.649852 2.966045,-0.936371 0.231696,-0.29674 -0.19888,-2.952984 0.167178,-3.076484 z"
     id="path4468-6-7-4"
     style="color:#000000;display:inline;overflow:visible;visibility:visible;fill:url(#linearGradient9804);fill-opacity:1;stroke:none;stroke-width:1.49402;marker:none;enable-background:accumulate" />
  <path
     d="m 12.58606,30.424824 -0.10361,0.09963 c -7.4e-4,0.0023 -0.004,0.003 -0.004,0.0045 -0.20799,0.503329 0.12521,2.705926 -0.0848,2.974841 -0.009,0.01125 -0.0215,0.02671 -0.0377,0.03796 l 0.0848,0.05694 c 1.6984,0.5087 0.21182,-3.068201 0.16953,-3.169363 -0.008,-0.0015 -0.016,-0.0053 -0.0235,-0.0045 z"
     id="path4480-14-8-3"
     style="opacity:0.5;fill:#9d0f06;fill-opacity:1;stroke:none" />
  <path
     d="m 9.967629,34.381789 c -0.33411,0.003 -0.52745,0.01898 -0.52745,0.01898 v 0.0045 0.07592 c 0.19596,0.360184 2.792631,0.772283 3.009311,1.062783 0.21703,0.290973 -0.34065,2.873566 0.0188,2.974834 0.37231,0.104891 1.66385,-2.285507 2.03446,-2.396002 0.35561,-0.106016 2.73347,1.178866 2.97164,0.906214 l -0.004,-0.0045 C 15.46525,34.56641 11.41583,34.36951 9.968039,34.381791 Z"
     id="path4517-2-4-0"
     style="opacity:0.75;fill:url(#linearGradient9806);fill-opacity:1;stroke:none" />
  <path
     id="path3867-3-5-3-2-5"
     style="fill:url(#linearGradient9802);fill-opacity:1;stroke:none"
     d="M 8.5 8 C 7.669 8 7 8.669 7 9.5 L 7 25.640625 C 7.2990749 25.713616 7.6141089 25.763672 7.9433594 25.763672 C 9.6144094 25.763672 11.248852 24.402344 14.039062 24.402344 C 16.829282 24.402344 18.927312 26.115234 22.445312 26.115234 C 25.963313 26.115234 26.754544 23.638672 31.240234 23.638672 C 35.725914 23.638672 35.304441 25.207031 38.113281 25.207031 C 39.45083 25.207031 40.256966 24.881232 41 24.537109 L 41 9.5 C 41 8.669 40.331 8 39.5 8 L 8.5 8 z " />
  <path
     d="m 31.24091,21.531662 c -2.35645,0 -3.83874,0.673262 -5.05228,1.300246 -1.21353,0.626983 -2.12904,1.176412 -3.74318,1.176412 -1.6588,0 -2.96983,-0.399909 -4.275,-0.825551 -1.30516,-0.425644 -2.61038,-0.887471 -4.13182,-0.887471 -1.49556,0 -2.69794,0.354953 -3.68181,0.701721 -0.983881,0.346767 -1.745851,0.660442 -2.413641,0.660442 -0.60463,0 -1.19401,-0.208571 -1.67727,-0.433415 a 0.6229208,0.6285327 0 0 0 -0.26591,-0.06192 v 2.703686 c 0.82828,0.209134 1.86731,0.371499 3.08863,0.371499 1.652851,0 2.493761,-0.304357 3.129551,-0.577888 0.63579,-0.27353 1.02914,-0.495331 2.31137,-0.495331 1.23082,0 2.2209,0.403081 3.43636,0.846191 1.21545,0.443111 2.64097,0.908109 4.58182,0.908109 2.41009,0 3.97897,-0.771287 5.27727,-1.485996 1.2983,-0.714708 2.30278,-1.341523 3.94773,-1.341523 1.2973,0 1.89993,0.332189 2.7,0.72236 0.80005,0.39017 1.78168,0.825552 3.43636,0.825552 2.10719,0 3.0308,-0.788867 4.09091,-1.279606 v -2.373465 a 0.6229208,0.6285327 0 0 0 -0.225,0.04127 c -1.23397,0.474437 -1.8716,1.073219 -3.66137,1.073219 -1.28952,0 -1.69197,-0.311728 -2.53636,-0.72236 -0.8444,-0.41063 -2.02157,-0.846191 -4.33636,-0.846191 z"
     id="path4213-1-6-5"
     style="color:#000000;display:inline;overflow:visible;visibility:visible;opacity:0.1;fill:#ffffff;fill-opacity:1;fill-rule:nonzero;stroke:none;stroke-width:10;marker:none;enable-background:accumulate" />
  <path
     id="rect3055-2-6-94-0-7-5"
     style="color:#000000;display:inline;overflow:visible;visibility:visible;opacity:0.3;fill:#ffffff;fill-opacity:1;fill-rule:nonzero;stroke:none;stroke-width:10;marker:none;enable-background:accumulate"
     d="M 31.240234 22.658203 C 26.754544 22.658203 25.963312 25.134766 22.445312 25.134766 C 18.927312 25.134766 16.829283 23.421875 14.039062 23.421875 C 11.248852 23.421875 9.6144094 24.783203 7.9433594 24.783203 C 7.614136 24.783203 7.2990534 24.73509 7 24.662109 L 7 25.945312 C 7.6141661 26.050963 8.3060121 26.125 9.0878906 26.125 C 12.254092 26.125 11.802837 25.052734 14.529297 25.052734 C 17.255737 25.052734 18.861055 26.806641 22.546875 26.806641 C 27.112195 26.806641 28.161407 23.978516 31.773438 23.978516 C 34.593908 23.978516 34.804073 25.527344 37.908203 25.527344 C 39.414096 25.527344 40.197363 25.105908 41 24.673828 L 41 23.556641 C 40.256966 23.900764 39.45083 24.226562 38.113281 24.226562 C 35.304441 24.226562 35.725914 22.658204 31.240234 22.658203 z " />
  <path
     id="rect3055-2-6-8-5-4-8"
     style="color:#000000;display:inline;overflow:visible;visibility:visible;fill:#920900;fill-opacity:1;fill-rule:nonzero;stroke:none;stroke-width:6.62904;marker:none;enable-background:accumulate;font-variation-settings:normal;opacity:0.1;vector-effect:none;stroke-linecap:butt;stroke-linejoin:miter;stroke-miterlimit:4;stroke-dasharray:none;stroke-dashoffset:0;stroke-opacity:1;-inkscape-stroke:none;stop-color:#000000;stop-opacity:1"
     d="M 31.240234 24.638672 C 26.754544 24.638672 25.963313 27.115234 22.445312 27.115234 C 18.927312 27.115234 16.829283 25.402344 14.039062 25.402344 C 11.248852 25.402344 9.6144094 26.763672 7.9433594 26.763672 C 7.6141089 26.763672 7.2991148 26.713598 7 26.640625 L 7 27.925781 L 7 28.287109 C 7.6141661 28.39276 8.3060121 28.466797 9.0878906 28.466797 C 12.254092 28.466797 11.802837 27.392578 14.529297 27.392578 C 17.255737 27.392578 18.861055 29.148437 22.546875 29.148438 C 27.112195 29.148438 28.161407 26.320313 31.773438 26.320312 C 34.593908 26.320312 34.804073 27.867187 37.908203 27.867188 C 39.414096 27.867188 40.197363 27.447705 41 27.015625 L 41 26.654297 L 41 25.537109 C 40.256863 25.88145 39.45083 26.207031 38.113281 26.207031 C 35.304441 26.207031 35.725914 24.638673 31.240234 24.638672 z " />
  <path
     id="rect3055-2-6-8-5-4"
     style="color:#000000;display:inline;overflow:visible;visibility:visible;fill:#ffffff;fill-opacity:1;fill-rule:nonzero;stroke:none;stroke-width:10;marker:none;enable-background:accumulate"
     d="M 31.240234 23.638672 C 26.754544 23.638672 25.963312 26.115234 22.445312 26.115234 C 18.927312 26.115234 16.829284 24.402344 14.039062 24.402344 C 11.248852 24.402344 9.6144094 25.763672 7.9433594 25.763672 C 7.6141089 25.763672 7.2991148 25.713598 7 25.640625 L 7 26.925781 L 7 27.287109 C 7.6141661 27.39276 8.3060121 27.466797 9.0878906 27.466797 C 12.254092 27.466797 11.802837 26.392578 14.529297 26.392578 C 17.255737 26.392578 18.861055 28.148438 22.546875 28.148438 C 27.112195 28.148438 28.161407 25.320312 31.773438 25.320312 C 34.593908 25.320312 34.804073 26.867188 37.908203 26.867188 C 39.414096 26.867188 40.197363 26.447705 41 26.015625 L 41 25.654297 L 41 24.537109 C 40.256863 24.88145 39.45083 25.207031 38.113281 25.207031 C 35.304441 25.207031 35.725914 23.638673 31.240234 23.638672 z " />
  <path
     id="rect5505-21-1-7-0-3"
     style="color:#000000;font-variation-settings:normal;display:inline;overflow:visible;visibility:visible;opacity:0.3;fill:none;fill-opacity:1;fill-rule:nonzero;stroke:#004466;stroke-width:1;stroke-linecap:round;stroke-linejoin:miter;stroke-miterlimit:4;stroke-dasharray:none;stroke-dashoffset:0;stroke-opacity:1;marker:none;enable-background:accumulate;stop-color:#000000"
     d="M 40.5,26 V 9.5 c 0,-0.554 -0.446,-1 -1,-1 h -31 c -0.554,0 -1,0.446 -1,1 V 27"
     sodipodi:nodetypes="cssssc" />
</svg>
