<?xml version="1.0" encoding="UTF-8" standalone="no"?>
<svg
   version="1.1"
   width="48"
   height="48"
   id="svg6649"
   xmlns:xlink="http://www.w3.org/1999/xlink"
   xmlns="http://www.w3.org/2000/svg"
   xmlns:svg="http://www.w3.org/2000/svg"
   xmlns:rdf="http://www.w3.org/1999/02/22-rdf-syntax-ns#"
   xmlns:cc="http://creativecommons.org/ns#"
   xmlns:dc="http://purl.org/dc/elements/1.1/">
  <defs
     id="defs6651">
    <linearGradient
       id="linearGradient1201">
      <stop
         id="stop1193"
         style="stop-color:#ffffff;stop-opacity:1"
         offset="0" />
      <stop
         id="stop1195"
         style="stop-color:#ffffff;stop-opacity:0.23529412"
         offset="0.06781636" />
      <stop
         id="stop1197"
         style="stop-color:#ffffff;stop-opacity:0.15686275"
         offset="0.94694352" />
      <stop
         id="stop1199"
         style="stop-color:#ffffff;stop-opacity:0.39215687"
         offset="1" />
    </linearGradient>
    <linearGradient
       id="linearGradient3688-166-749">
      <stop
         id="stop2883"
         style="stop-color:#181818;stop-opacity:1"
         offset="0" />
      <stop
         id="stop2885"
         style="stop-color:#181818;stop-opacity:0"
         offset="1" />
    </linearGradient>
    <linearGradient
       id="linearGradient3702-501-757">
      <stop
         id="stop2895"
         style="stop-color:#181818;stop-opacity:0"
         offset="0" />
      <stop
         id="stop2897"
         style="stop-color:#181818;stop-opacity:1"
         offset="0.5" />
      <stop
         id="stop2899"
         style="stop-color:#181818;stop-opacity:0"
         offset="1" />
    </linearGradient>
    <radialGradient
       cx="4.9929786"
       cy="43.5"
       r="2.5"
       fx="4.9929786"
       fy="43.5"
       id="radialGradient3013-6"
       xlink:href="#linearGradient3688-166-749"
       gradientUnits="userSpaceOnUse"
       gradientTransform="matrix(2.003784,0,0,0.89999994,29.98813,4.8500025)" />
    <radialGradient
       cx="4.9929786"
       cy="43.5"
       r="2.5"
       fx="4.9929786"
       fy="43.5"
       id="radialGradient3015-1"
       xlink:href="#linearGradient3688-166-749"
       gradientUnits="userSpaceOnUse"
       gradientTransform="matrix(2.003784,0,0,0.89999994,-18.01187,-83.149997)" />
    <linearGradient
       x1="38.999996"
       y1="5.9999938"
       x2="38.999996"
       y2="41.945408"
       id="linearGradient3058-5"
       xlink:href="#linearGradient1201"
       gradientUnits="userSpaceOnUse"
       gradientTransform="translate(4e-6,1.0000062)" />
    <linearGradient
       xlink:href="#linearGradient3702-501-757"
       id="linearGradient1191"
       gradientUnits="userSpaceOnUse"
       x1="25.058096"
       y1="47.027729"
       x2="25.058096"
       y2="39.999443"
       gradientTransform="matrix(1.1428571,0,0,0.6428571,-3.428569,16.035716)" />
    <linearGradient
       id="linearGradient3600-9-51">
      <stop
         offset="0"
         style="stop-color:#f4f4f4;stop-opacity:1"
         id="stop3602-0-0" />
      <stop
         offset="1"
         style="stop-color:#dbdbdb;stop-opacity:1"
         id="stop3604-9-04" />
    </linearGradient>
    <linearGradient
       id="linearGradient3104-6">
      <stop
         offset="0"
         style="stop-color:#000000;stop-opacity:0.31782946"
         id="stop3106-3" />
      <stop
         offset="1"
         style="stop-color:#000000;stop-opacity:0.24031007"
         id="stop3108-9" />
    </linearGradient>
    <linearGradient
       xlink:href="#linearGradient3104-6"
       id="linearGradient3170"
       gradientUnits="userSpaceOnUse"
       gradientTransform="matrix(0.80749686,0,0,0.89471714,10.835333,-0.132171)"
       x1="-51.786404"
       y1="50.786446"
       x2="-51.786404"
       y2="2.9062471" />
    <linearGradient
       xlink:href="#linearGradient3600-9-51"
       id="linearGradient1512"
       gradientUnits="userSpaceOnUse"
       gradientTransform="matrix(0.97142632,0,0,0.93431938,-47.889132,1.4881727)"
       x1="74.838791"
       y1="4.535933"
       x2="74.838791"
       y2="49.779099" />
    <linearGradient
       xlink:href="#linearGradient3104-6"
       id="linearGradient9328"
       gradientUnits="userSpaceOnUse"
       gradientTransform="matrix(0.80749686,0,0,0.89471714,10.835333,-0.132171)"
       x1="-51.786404"
       y1="50.786446"
       x2="-51.786404"
       y2="2.9062471" />
    <linearGradient
       xlink:href="#linearGradient3600-9-51"
       id="linearGradient9330"
       gradientUnits="userSpaceOnUse"
       gradientTransform="matrix(0.97142632,0,0,0.93431938,-47.889132,1.4881727)"
       x1="74.838791"
       y1="4.535933"
       x2="74.838791"
       y2="49.779099" />
    <linearGradient
       xlink:href="#linearGradient1201"
       id="linearGradient9332"
       gradientUnits="userSpaceOnUse"
       gradientTransform="translate(4e-6,1.0000062)"
       x1="38.999996"
       y1="5.9999938"
       x2="38.999996"
       y2="41.945408" />
    <linearGradient
       x1="164.28023"
       y1="246.46793"
       x2="164.28023"
       y2="153.44322"
       id="linearGradient3077-9-7"
       xlink:href="#linearGradient4487"
       gradientUnits="userSpaceOnUse"
       gradientTransform="matrix(0.4698806,0,0,0.36274881,-54.68441,-47.707235)" />
    <linearGradient
       id="linearGradient4487">
      <stop
         id="stop4489"
         style="stop-color:#feaf9d;stop-opacity:1"
         offset="0" />
      <stop
         id="stop4491"
         style="stop-color:#7f4a98;stop-opacity:1"
         offset="1" />
    </linearGradient>
    <radialGradient
       xlink:href="#linearGradient4304"
       id="radialGradient4310"
       cx="10"
       cy="73"
       fx="10"
       fy="73"
       r="30.5"
       gradientUnits="userSpaceOnUse"
       gradientTransform="matrix(0.9109268,1.4743681e-8,-1.4475741e-8,0.8909721,1.569984,-10.555318)" />
    <linearGradient
       id="linearGradient4304">
      <stop
         style="stop-color:#ffe6ab;stop-opacity:1"
         offset="0"
         id="stop4306" />
      <stop
         id="stop4312"
         offset="0.82044184"
         style="stop-color:#ffea8a;stop-opacity:0.63921571" />
      <stop
         style="stop-color:#e6ff4d;stop-opacity:0"
         offset="1"
         id="stop4308" />
    </linearGradient>
    <linearGradient
       id="linearGradient4526">
      <stop
         id="stop4528"
         offset="0"
         style="stop-color:#ffffff;stop-opacity:1;" />
    </linearGradient>
    <linearGradient
       id="linearGradient841">
      <stop
         id="stop837"
         offset="0"
         style="stop-color:#ffe16b;stop-opacity:1" />
      <stop
         id="stop839"
         offset="1"
         style="stop-color:#f9c440;stop-opacity:1" />
    </linearGradient>
    <linearGradient
       xlink:href="#linearGradient841"
       id="linearGradient3483"
       gradientUnits="userSpaceOnUse"
       gradientTransform="matrix(-1,0,0,1,-31.702461,23.054628)"
       x1="-50.4426"
       y1="8.8156824"
       x2="-50.4426"
       y2="18.842152" />
  </defs>
  <metadata
     id="metadata6654">
    <rdf:RDF>
      <cc:Work
         rdf:about="">
        <dc:format>image/svg+xml</dc:format>
        <dc:type
           rdf:resource="http://purl.org/dc/dcmitype/StillImage" />
      </cc:Work>
    </rdf:RDF>
  </metadata>
  <g
     id="g9344"
     transform="matrix(-0.96592583,0.25881905,0.25881905,0.96592583,40.711775,-6.8753208)">
    <rect
       style="color:#000000;font-variation-settings:normal;display:inline;overflow:visible;visibility:visible;vector-effect:none;fill:none;fill-opacity:1;fill-rule:nonzero;stroke:url(#linearGradient9328);stroke-width:0.999922;stroke-linecap:butt;stroke-linejoin:round;stroke-miterlimit:4;stroke-dasharray:none;stroke-dashoffset:0;stroke-opacity:1;-inkscape-stroke:none;marker:none;enable-background:accumulate;stop-color:#000000"
       id="rect5505-21-1-9"
       y="5.4999952"
       x="4.5000153"
       ry="4"
       rx="4"
       height="39"
       width="39" />
    <rect
       style="color:#000000;font-variation-settings:normal;display:inline;overflow:visible;visibility:visible;vector-effect:none;fill:url(#linearGradient9330);fill-opacity:1;fill-rule:nonzero;stroke:none;stroke-width:1;stroke-linecap:butt;stroke-linejoin:miter;stroke-miterlimit:4;stroke-dasharray:none;stroke-dashoffset:0;stroke-opacity:1;-inkscape-stroke:none;marker:none;enable-background:accumulate;stop-color:#000000"
       id="rect5505-21-1-7-2"
       y="6"
       x="5"
       ry="3.5"
       rx="3.5"
       height="38"
       width="38" />
    <rect
       style="color:#000000;font-variation-settings:normal;display:inline;overflow:visible;visibility:visible;vector-effect:none;fill:#844e98;fill-opacity:1;fill-rule:nonzero;stroke:none;stroke-width:1;stroke-linecap:butt;stroke-linejoin:miter;stroke-miterlimit:4;stroke-dasharray:none;stroke-dashoffset:0;stroke-opacity:1;-inkscape-stroke:none;marker:none;enable-background:accumulate;stop-color:#000000"
       id="rect5505-21-1-7-0-0"
       y="8"
       x="7"
       ry="1.5"
       rx="1.5"
       height="34"
       width="34" />
    <rect
       style="color:#000000;font-variation-settings:normal;display:inline;overflow:visible;visibility:visible;opacity:0.15;vector-effect:none;fill:none;fill-opacity:1;fill-rule:nonzero;stroke:#24004d;stroke-width:0.999997;stroke-linecap:butt;stroke-linejoin:miter;stroke-miterlimit:4;stroke-dasharray:none;stroke-dashoffset:0;stroke-opacity:1;-inkscape-stroke:none;marker:none;enable-background:accumulate;stop-color:#000000;stop-opacity:1"
       id="rect5505-21-1-7-0-3-2"
       y="8.4999981"
       x="7.4999986"
       ry="1"
       rx="1"
       height="33"
       width="33" />
    <rect
       style="fill:none;stroke:url(#linearGradient9332);stroke-width:1;stroke-linecap:round;stroke-linejoin:round;stroke-miterlimit:4;stroke-dasharray:none;stroke-dashoffset:0;stroke-opacity:1"
       id="rect6741-2-3"
       y="6.4999952"
       x="5.5000153"
       ry="3"
       rx="3"
       height="37"
       width="37" />
  </g>
  <rect
     style="opacity:0.4;fill:url(#radialGradient3013-6);fill-opacity:1;stroke:none;stroke-width:0.862764"
     id="rect2801-3-7"
     y="41.75"
     x="40"
     height="4.4999995"
     width="5" />
  <rect
     style="opacity:0.4;fill:url(#radialGradient3015-1);fill-opacity:1;stroke:none;stroke-width:0.862764"
     id="rect3696-6-3"
     transform="scale(-1)"
     y="-46.25"
     x="-8"
     height="4.4999995"
     width="5" />
  <rect
     style="opacity:0.4;fill:url(#linearGradient1191);fill-opacity:1;stroke:none;stroke-width:0.862764"
     id="rect3700-4-6"
     y="41.75"
     x="8"
     height="4.5"
     width="32" />
  <rect
     style="color:#000000;display:inline;overflow:visible;visibility:visible;opacity:1;fill:none;fill-opacity:1;fill-rule:nonzero;stroke:url(#linearGradient3170);stroke-width:0.999922;stroke-opacity:1;marker:none;enable-background:accumulate;font-variation-settings:normal;vector-effect:none;stroke-linecap:butt;stroke-linejoin:round;stroke-miterlimit:4;stroke-dasharray:none;stroke-dashoffset:0;-inkscape-stroke:none;stop-color:#000000;stop-opacity:1"
     id="rect5505-21-1"
     y="5.4999952"
     x="4.5000153"
     ry="4"
     rx="4"
     height="39"
     width="39" />
  <rect
     style="color:#000000;display:inline;overflow:visible;visibility:visible;fill:url(#linearGradient1512);fill-opacity:1;fill-rule:nonzero;stroke:none;stroke-width:1;stroke-opacity:1;marker:none;enable-background:accumulate;font-variation-settings:normal;opacity:1;vector-effect:none;stroke-linecap:butt;stroke-linejoin:miter;stroke-miterlimit:4;stroke-dasharray:none;stroke-dashoffset:0;-inkscape-stroke:none;stop-color:#000000;stop-opacity:1"
     id="rect5505-21-1-7"
     y="6"
     x="5"
     ry="3.5"
     rx="3.5"
     height="38"
     width="38" />
  <rect
     style="color:#000000;font-variation-settings:normal;display:inline;overflow:visible;visibility:visible;opacity:1;vector-effect:none;fill:url(#linearGradient3077-9-7);fill-opacity:1;fill-rule:nonzero;stroke:none;stroke-width:1;stroke-linecap:round;stroke-linejoin:miter;stroke-miterlimit:4;stroke-dasharray:none;stroke-dashoffset:0;stroke-opacity:1;-inkscape-stroke:none;marker:none;enable-background:accumulate;stop-color:#000000;stop-opacity:1"
     id="rect5505-21-1-7-0"
     y="8"
     x="7"
     ry="1.5"
     rx="1.5"
     height="34"
     width="34" />
  <path
     id="path2555-7-6-5-7"
     style="color:#000000;clip-rule:nonzero;display:inline;overflow:visible;visibility:visible;opacity:0.6;isolation:auto;mix-blend-mode:normal;color-interpolation:sRGB;color-interpolation-filters:linearRGB;solid-color:#000000;solid-opacity:1;fill:url(#radialGradient4310);fill-opacity:1;fill-rule:evenodd;stroke:none;stroke-width:1px;stroke-linecap:butt;stroke-linejoin:miter;stroke-miterlimit:4;stroke-dasharray:none;stroke-dashoffset:0;stroke-opacity:1;marker:none;color-rendering:auto;image-rendering:auto;shape-rendering:auto;text-rendering:auto;enable-background:accumulate"
     d="M 10.679688 26.755859 C 9.4317615 26.755859 8.204638 26.846281 7 27.005859 L 7 40.5 C 7 41.331 7.669 42 8.5 42 L 35.478516 42 C 30.896578 32.962923 21.509865 26.755859 10.679688 26.755859 z " />
  <rect
     style="opacity:1;fill:none;stroke:url(#linearGradient3058-5);stroke-width:1;stroke-linecap:round;stroke-linejoin:round;stroke-miterlimit:4;stroke-dasharray:none;stroke-dashoffset:0;stroke-opacity:1"
     id="rect6741-2"
     y="6.4999952"
     x="5.5000153"
     ry="3"
     rx="3"
     height="37"
     width="37" />
  <path
     id="path4427"
     style="opacity:0.5;fill:#24004d;fill-opacity:1"
     d="M 22.277344 8 C 22.270844 8.06542 22.278224 8.1302065 22.308594 8.1953125 C 22.411515 8.4159515 22.722051 8.4465365 23.117188 8.2734375 C 23.469694 8.1190245 23.807141 8.0995149 23.869141 8.2324219 C 23.931131 8.3653349 23.809162 8.5499251 23.597656 8.6425781 C 23.093339 8.8634941 23.152425 8.9503988 24.359375 9.7773438 C 25.293755 10.417536 25.472356 10.437721 26.462891 10.005859 C 27.319142 9.6325514 27.549431 9.6230455 27.566406 9.9609375 C 27.578836 10.208196 27.737835 10.329348 27.943359 10.25 C 28.138632 10.17461 28.085398 10.32273 27.826172 10.580078 C 27.520963 10.883058 27.469382 11.157654 27.679688 11.355469 C 27.954676 11.614111 27.703512 11.792011 26.029297 12.525391 C 23.882403 13.465833 21.754448 14.974609 20.472656 16.466797 C 19.675044 17.395328 18.179106 20.522589 18.353516 20.896484 C 18.402346 21.001163 18.850655 20.90912 19.347656 20.691406 C 20.090826 20.36586 20.248013 20.155064 20.236328 19.501953 L 20.222656 18.708984 L 20.597656 19.242188 L 20.974609 19.779297 L 21.283203 18.794922 C 21.571793 17.879707 21.601851 17.856524 21.726562 18.429688 C 21.809372 18.81027 22.020532 19.034583 22.28125 19.017578 C 22.595701 18.997038 22.68906 19.133945 22.654297 19.5625 C 22.611997 20.083979 22.706838 20.092056 23.697266 19.658203 C 24.57438 19.273985 24.83944 19.004569 25.054688 18.265625 L 25.320312 17.347656 L 25.675781 18.066406 C 26.01426 18.749323 26.039409 18.751956 26.189453 18.148438 C 26.326937 17.59563 26.372834 17.567463 26.539062 17.923828 C 26.677468 18.220533 26.948987 18.235524 27.53125 17.980469 C 28.280133 17.652419 28.243282 17.762993 26.988281 19.632812 C 26.24907 20.734158 25.202924 22.79545 24.664062 24.214844 C 23.726236 26.685108 22.729628 30.849452 23.117188 30.679688 C 23.652379 30.445248 25.901686 28.478579 25.824219 28.3125 C 25.774429 28.205755 25.718235 27.756743 25.699219 27.314453 C 25.664999 26.518444 25.672057 26.512992 26.142578 26.955078 C 26.807009 27.579356 27.343529 27.244558 27.320312 26.220703 C 27.299633 25.309212 27.638194 24.911817 27.919922 25.515625 C 28.056796 25.809051 28.176763 25.77302 28.597656 25.316406 C 28.980231 24.901353 29.024548 24.575989 28.769531 24.029297 C 28.455315 23.355699 28.471364 23.319273 28.980469 23.589844 C 29.556838 23.896171 30.071068 23.512738 29.816406 22.966797 C 29.719956 22.760028 29.912822 22.594766 30.376953 22.484375 C 30.765482 22.391955 31.075905 22.403532 31.066406 22.507812 C 30.908971 24.233839 30.882196 28.392339 31.019531 29.939453 C 31.184958 31.803566 32.123167 35.176749 32.4375 35.039062 C 32.51359 35.005733 32.917827 33.878833 33.335938 32.535156 C 33.819862 30.980019 33.982949 29.957411 33.783203 29.720703 C 33.551933 29.446642 33.621734 29.279495 34.054688 29.089844 C 34.736936 28.790983 35.075849 27.443109 34.583984 26.980469 C 34.344244 26.754967 34.385695 26.661593 34.736328 26.638672 C 35.343421 26.599022 35.269087 26.436652 34.292969 25.699219 C 33.522615 25.117224 33.518761 25.110974 34.210938 25.310547 C 34.596581 25.421735 34.991293 25.48092 35.085938 25.439453 C 35.357659 25.320423 34.856054 24.427843 34.494141 24.386719 C 34.314822 24.366339 34.112808 24.237043 34.046875 24.095703 C 33.970835 23.932672 34.119045 23.885482 34.449219 23.96875 C 35.36997 24.200981 35.720902 23.542247 35.103516 22.740234 C 34.803951 22.351092 34.398089 21.956044 34.203125 21.863281 C 33.955321 21.745376 34.061401 21.645232 34.548828 21.529297 C 34.973377 21.428312 35.190065 21.253066 35.109375 21.080078 C 35.036455 20.923818 35.121752 20.812355 35.294922 20.832031 C 35.468134 20.851711 35.693395 20.36749 35.796875 19.757812 C 35.900335 19.148138 36.053149 18.616771 36.136719 18.578125 C 38.490139 20.953341 40.204452 32.226114 40.607422 38.847656 L 41 38.847656 L 41 22.835938 C 39.80748 20.352249 38.546573 18.215246 37.408203 17.076172 C 35.983673 15.650755 35.918463 15.442012 37.001953 15.763672 C 37.608673 15.943796 37.649754 15.910336 37.615234 15.275391 C 37.579834 14.624313 37.599981 14.629348 38.150391 15.365234 C 38.599721 15.96594 39.114031 16.198679 40.519531 16.4375 C 40.701391 16.46841 40.83042 16.485259 41 16.511719 L 41 10.634766 C 40.9702 10.63489 40.942009 10.632612 40.912109 10.632812 L 39.660156 10.642578 L 40.597656 10.224609 C 40.742996 10.159949 40.87652 10.083946 41 10.005859 L 41 9.5 C 41 8.669 40.331 8 39.5 8 L 37.455078 8 L 34.757812 9.1933594 L 34.601562 8.3613281 C 34.581693 8.2556061 34.539123 8.122264 34.507812 8 L 30.330078 8 C 30.328578 8.0016 30.332278 8.014825 30.330078 8.015625 C 30.321678 8.019025 30.280962 8.00218 30.263672 8 L 22.277344 8 z M 29.330078 15.486328 C 29.610201 15.522438 29.652481 16.207052 29.335938 16.597656 C 29.127375 16.854717 28.887133 17.09498 28.800781 17.132812 C 28.576398 17.231102 28.969874 15.622363 29.197266 15.511719 C 29.246646 15.487699 29.290048 15.481168 29.330078 15.486328 z " />
  <rect
     style="color:#000000;font-variation-settings:normal;display:inline;overflow:visible;visibility:visible;opacity:0.15;vector-effect:none;fill:none;fill-opacity:1;fill-rule:nonzero;stroke:#24004d;stroke-width:0.999997;stroke-linecap:butt;stroke-linejoin:miter;stroke-miterlimit:4;stroke-dasharray:none;stroke-dashoffset:0;stroke-opacity:1;-inkscape-stroke:none;marker:none;enable-background:accumulate;stop-color:#000000"
     id="rect5505-21-1-7-0-3-8"
     y="8.4999981"
     x="7.4999986"
     ry="1"
     rx="1"
     height="33"
     width="33" />
  <path
     id="path2555-7-6-5"
     style="color:#000000;clip-rule:nonzero;display:inline;overflow:visible;visibility:visible;isolation:auto;mix-blend-mode:normal;color-interpolation:sRGB;color-interpolation-filters:linearRGB;solid-color:#000000;solid-opacity:1;fill:url(#linearGradient3483);fill-opacity:1;fill-rule:evenodd;stroke:none;stroke-width:1;stroke-linecap:round;stroke-linejoin:round;stroke-miterlimit:4;stroke-dasharray:none;stroke-dashoffset:0;stroke-opacity:0.5;marker:none;color-rendering:auto;image-rendering:auto;shape-rendering:auto;text-rendering:auto;enable-background:accumulate;font-variation-settings:normal;opacity:1;vector-effect:none;-inkscape-stroke:none;stop-color:#000000;stop-opacity:1"
     d="M 10.787109 31.871094 C 9.6696036 31.871094 8.5736417 31.96239 7.5 32.121094 L 7.5 40.5 C 7.5 41.054 7.946 41.5 8.5 41.5 L 29.216797 41.5 C 25.160355 35.684327 18.415704 31.871094 10.787109 31.871094 z " />
  <path
     id="path2555-7-6-5-2"
     style="color:#000000;font-variation-settings:normal;clip-rule:nonzero;display:inline;overflow:visible;visibility:visible;isolation:auto;mix-blend-mode:normal;color-interpolation:sRGB;color-interpolation-filters:linearRGB;solid-color:#000000;solid-opacity:1;vector-effect:none;fill:none;fill-opacity:1;fill-rule:evenodd;stroke:#ad5f00;stroke-width:1;stroke-linecap:butt;stroke-linejoin:round;stroke-miterlimit:4;stroke-dasharray:none;stroke-dashoffset:0;stroke-opacity:1;-inkscape-stroke:none;marker:none;color-rendering:auto;image-rendering:auto;shape-rendering:auto;text-rendering:auto;enable-background:accumulate;stop-color:#000000;opacity:0.3"
     d="M 7.5,32.121094 V 40.5 c 0,0.554 0.446,1 1,1 h 20.716797" />
</svg>
