<?xml version="1.0" encoding="UTF-8" standalone="no"?>
<svg
   xmlns:dc="http://purl.org/dc/elements/1.1/"
   xmlns:cc="http://creativecommons.org/ns#"
   xmlns:rdf="http://www.w3.org/1999/02/22-rdf-syntax-ns#"
   xmlns:svg="http://www.w3.org/2000/svg"
   xmlns="http://www.w3.org/2000/svg"
   width="16"
   version="1.1"
   id="svg7384"
   height="16">
  <metadata
     id="metadata90">
    <rdf:RDF>
      <cc:Work
         rdf:about="">
        <dc:format>image/svg+xml</dc:format>
        <dc:type
           rdf:resource="http://purl.org/dc/dcmitype/StillImage" />
        <dc:title>elementary Symbolic Icon Theme</dc:title>
      </cc:Work>
    </rdf:RDF>
  </metadata>
  <title
     id="title9167">elementary Symbolic Icon Theme</title>
  <defs
     id="defs7386" />
  <path
     id="rect4634"
     d="M 2,2 C 1.446,2 1,2.446 1,3 l 0,10 c 0,0.554 0.446,1 1,1 l 12,0 c 0.554,0 1,-0.446 1,-1 L 15,3 C 15,2.446 14.554,2 14,2 Z m 12,2 0,8.5 C 14,12.777 13.777,13 13.5,13 L 3,13 Z M 5,4 6,4 6,6 8,6 8,7 6,7 6,9 5,9 5,7 3,7 3,6 5,6 Z m 4,6 0,1 3,0 0,-1 z"
     style="color:#000000;clip-rule:nonzero;display:inline;overflow:visible;visibility:visible;opacity:1;isolation:auto;mix-blend-mode:normal;color-interpolation:sRGB;color-interpolation-filters:linearRGB;solid-color:#000000;solid-opacity:1;fill:#bebebe;fill-opacity:1;fill-rule:nonzero;stroke:none;stroke-width:1;stroke-linecap:butt;stroke-linejoin:miter;stroke-miterlimit:4;stroke-dasharray:none;stroke-dashoffset:0;stroke-opacity:1;marker:none;color-rendering:auto;image-rendering:auto;shape-rendering:auto;text-rendering:auto;enable-background:accumulate" />
  <g
     transform="translate(-856.487,-207.48659)"
     style="display:inline"
     label="status"
     id="layer9" />
  <g
     transform="translate(-856.487,-207.48659)"
     style="display:inline"
     id="layer10" />
  <g
     transform="translate(-856.487,-207.48659)"
     style="display:inline"
     id="layer13" />
  <g
     transform="translate(-856.487,-207.48659)"
     id="layer14" />
  <g
     transform="translate(-856.487,-207.48659)"
     style="display:inline"
     id="layer15" />
  <g
     transform="translate(-856.487,-207.48659)"
     style="display:inline"
     id="g71291" />
</svg>
