<?xml version="1.0" encoding="UTF-8" standalone="no"?>
<svg
   xmlns:dc="http://purl.org/dc/elements/1.1/"
   xmlns:cc="http://creativecommons.org/ns#"
   xmlns:rdf="http://www.w3.org/1999/02/22-rdf-syntax-ns#"
   xmlns:svg="http://www.w3.org/2000/svg"
   xmlns="http://www.w3.org/2000/svg"
   xmlns:sodipodi="http://sodipodi.sourceforge.net/DTD/sodipodi-0.dtd"
   xmlns:inkscape="http://www.inkscape.org/namespaces/inkscape"
   height="16"
   id="svg7384"
   version="1.1"
   width="16"
   inkscape:version="0.91 r13725"
   sodipodi:docname="shutter-speed-symbolic.svg">
  <sodipodi:namedview
     pagecolor="#ffffff"
     bordercolor="#666666"
     borderopacity="1"
     objecttolerance="10"
     gridtolerance="10"
     guidetolerance="10"
     inkscape:pageopacity="0"
     inkscape:pageshadow="2"
     inkscape:window-width="3200"
     inkscape:window-height="1688"
     id="namedview20"
     showgrid="false"
     borderlayer="true"
     showborder="true"
     inkscape:zoom="2"
     inkscape:cx="-99.5"
     inkscape:cy="37.036064"
     inkscape:window-x="0"
     inkscape:window-y="60"
     inkscape:window-maximized="1"
     inkscape:current-layer="svg7384"
     showguides="false"
     inkscape:guide-bbox="true">
    <inkscape:grid
       type="xygrid"
       id="grid4170" />
    <sodipodi:guide
       position="-58,13"
       orientation="0,1"
       id="guide4659" />
    <sodipodi:guide
       position="-34,1"
       orientation="0,1"
       id="guide4661" />
  </sodipodi:namedview>
  <metadata
     id="metadata90">
    <rdf:RDF>
      <cc:Work
         rdf:about="">
        <dc:format>image/svg+xml</dc:format>
        <dc:type
           rdf:resource="http://purl.org/dc/dcmitype/StillImage" />
        <dc:title>elementary Symbolic Icon Theme</dc:title>
      </cc:Work>
    </rdf:RDF>
  </metadata>
  <title
     id="title9167">elementary Symbolic Icon Theme</title>
  <defs
     id="defs7386">
    <filter
       id="filter7554"
       style="color-interpolation-filters:sRGB">
      <feBlend
         mode="darken"
         in2="BackgroundImage"
         id="feBlend7556" />
    </filter>
    <filter
       id="filter7554-7"
       style="color-interpolation-filters:sRGB">
      <feBlend
         mode="darken"
         in2="BackgroundImage"
         id="feBlend7556-6" />
    </filter>
  </defs>
  <path
     style="color:#000000;clip-rule:nonzero;display:inline;overflow:visible;visibility:visible;opacity:1;isolation:auto;mix-blend-mode:normal;color-interpolation:sRGB;color-interpolation-filters:linearRGB;solid-color:#000000;solid-opacity:1;fill:#bebebe;fill-opacity:1;fill-rule:nonzero;stroke:none;stroke-width:1;stroke-linecap:butt;stroke-linejoin:miter;stroke-miterlimit:4;stroke-dasharray:none;stroke-dashoffset:0;stroke-opacity:1;marker:none;color-rendering:auto;image-rendering:auto;shape-rendering:auto;text-rendering:auto;enable-background:accumulate"
     d="M 7,0 C 6.446,0 6,0.446 6,1 6,1.554 6.446,2 7,2 L 8,2 9,2 C 9.554,2 10,1.554 10,1 10,0.446 9.554,0 9,0 L 7,0 Z M 8,2 A 7,7 0 0 0 1,9 7,7 0 0 0 8,16 7,7 0 0 0 15,9 7,7 0 0 0 8,2 Z M 8,3 A 6,6 0 0 1 14,9 6,6 0 0 1 8,15 6,6 0 0 1 2,9 6,6 0 0 1 8,3 Z M 9.294922,4.169922 8,9 12.330078,6.5 A 5,5 0 0 0 9.294922,4.169922 Z"
     id="path4172-1"
     inkscape:connector-curvature="0" />
  <g
     id="layer9"
     label="status"
     style="display:inline"
     transform="translate(-856.487,-207.48659)" />
  <g
     id="layer10"
     style="display:inline"
     transform="translate(-856.487,-207.48659)" />
  <g
     id="layer13"
     style="display:inline"
     transform="translate(-856.487,-207.48659)" />
  <g
     id="layer14"
     transform="translate(-856.487,-207.48659)" />
  <g
     id="layer15"
     style="display:inline"
     transform="translate(-856.487,-207.48659)" />
  <g
     id="g71291"
     style="display:inline"
     transform="translate(-856.487,-207.48659)" />
</svg>
