<?xml version="1.0" encoding="UTF-8" standalone="no"?>
<svg
   xmlns:dc="http://purl.org/dc/elements/1.1/"
   xmlns:cc="http://creativecommons.org/ns#"
   xmlns:rdf="http://www.w3.org/1999/02/22-rdf-syntax-ns#"
   xmlns:svg="http://www.w3.org/2000/svg"
   xmlns="http://www.w3.org/2000/svg"
   width="16"
   version="1.1"
   id="svg7384"
   height="16.072405">
  <metadata
     id="metadata90">
    <rdf:RDF>
      <cc:Work
         rdf:about="">
        <dc:format>image/svg+xml</dc:format>
        <dc:type
           rdf:resource="http://purl.org/dc/dcmitype/StillImage" />
        <dc:title>elementary Symbolic Icon Theme</dc:title>
      </cc:Work>
    </rdf:RDF>
  </metadata>
  <title
     id="title9167">elementary Symbolic Icon Theme</title>
  <defs
     id="defs7386">
    <filter
       color-interpolation-filters="sRGB"
       id="filter7554">
      <feBlend
         id="feBlend7556"
         in2="BackgroundImage"
         mode="darken" />
    </filter>
    <filter
       color-interpolation-filters="sRGB"
       id="filter7554-7">
      <feBlend
         id="feBlend7556-6"
         in2="BackgroundImage"
         mode="darken" />
    </filter>
  </defs>
  <path
     id="path4720"
     d="M 13.855469 0.072265625 L 0 8.0722656 L 13.855469 16.072266 A 16 16 0 0 0 14.320312 15.185547 L 12.658203 14.226562 C 13.536006 12.29322 13.993354 10.195544 14 8.0722656 C 13.995747 5.9480945 13.540389 3.8490492 12.664062 1.9140625 L 14.3125 0.96289062 A 16 16 0 0 0 13.855469 0.072265625 z M 11.789062 2.4199219 C 12.581525 4.1992807 12.99396 6.1244265 13 8.0722656 C 12.997 10.020866 12.587182 11.947374 11.796875 13.728516 L 9.2382812 12.251953 A 2 4.5 0 0 0 10.5 8.0722656 A 2 4.5 0 0 0 9.2382812 3.8925781 L 11.789062 2.4199219 z M 8.5 4.8222656 A 1 3.25 0 0 1 9.5 8.0722656 A 1 3.25 0 0 1 8.5 11.322266 A 1 3.25 0 0 1 7.5 8.0722656 A 1 3.25 0 0 1 8.5 4.8222656 z M 6.9589844 5.2089844 A 2 4.5 0 0 0 6.5 8.0722656 A 2 4.5 0 0 0 6.9589844 10.935547 L 2 8.0722656 L 6.9589844 5.2089844 z "
     style="color:#000000;clip-rule:nonzero;display:inline;overflow:visible;visibility:visible;opacity:1;isolation:auto;mix-blend-mode:normal;color-interpolation:sRGB;color-interpolation-filters:linearRGB;solid-color:#000000;solid-opacity:1;fill:#bebebe;fill-opacity:1;fill-rule:nonzero;stroke:none;stroke-width:1;stroke-linecap:butt;stroke-linejoin:miter;stroke-miterlimit:4;stroke-dasharray:none;stroke-dashoffset:0;stroke-opacity:1;marker:none;color-rendering:auto;image-rendering:auto;shape-rendering:auto;text-rendering:auto;enable-background:accumulate;filter-blend-mode:normal;filter-gaussianBlur-deviation:0" />
  <g
     transform="translate(-856.487,-207.41419)"
     style="display:inline"
     label="status"
     id="layer9" />
  <g
     transform="translate(-856.487,-207.41419)"
     style="display:inline"
     id="layer10" />
  <g
     transform="translate(-856.487,-207.41419)"
     style="display:inline"
     id="layer13" />
  <g
     transform="translate(-856.487,-207.41419)"
     id="layer14" />
  <g
     transform="translate(-856.487,-207.41419)"
     style="display:inline"
     id="layer15" />
  <g
     transform="translate(-856.487,-207.41419)"
     style="display:inline"
     id="g71291" />
</svg>
