<?xml version="1.0" encoding="UTF-8" standalone="no"?>
<svg
   xmlns:dc="http://purl.org/dc/elements/1.1/"
   xmlns:cc="http://creativecommons.org/ns#"
   xmlns:rdf="http://www.w3.org/1999/02/22-rdf-syntax-ns#"
   xmlns:svg="http://www.w3.org/2000/svg"
   xmlns="http://www.w3.org/2000/svg"
   xmlns:sodipodi="http://sodipodi.sourceforge.net/DTD/sodipodi-0.dtd"
   xmlns:inkscape="http://www.inkscape.org/namespaces/inkscape"
   height="16"
   id="svg7384"
   version="1.1"
   width="16"
   inkscape:version="0.91 r13725"
   sodipodi:docname="iso-symbolic.svg">
  <sodipodi:namedview
     pagecolor="#ffffff"
     bordercolor="#666666"
     borderopacity="1"
     objecttolerance="10"
     gridtolerance="10"
     guidetolerance="10"
     inkscape:pageopacity="0"
     inkscape:pageshadow="2"
     inkscape:window-width="3200"
     inkscape:window-height="1688"
     id="namedview20"
     showgrid="false"
     borderlayer="true"
     showborder="true"
     inkscape:zoom="2"
     inkscape:cx="-99.5"
     inkscape:cy="37.036064"
     inkscape:window-x="0"
     inkscape:window-y="60"
     inkscape:window-maximized="1"
     inkscape:current-layer="svg7384"
     showguides="false"
     inkscape:guide-bbox="true">
    <inkscape:grid
       type="xygrid"
       id="grid4170" />
    <sodipodi:guide
       position="-58,13"
       orientation="0,1"
       id="guide4659" />
    <sodipodi:guide
       position="-34,1"
       orientation="0,1"
       id="guide4661" />
  </sodipodi:namedview>
  <metadata
     id="metadata90">
    <rdf:RDF>
      <cc:Work
         rdf:about="">
        <dc:format>image/svg+xml</dc:format>
        <dc:type
           rdf:resource="http://purl.org/dc/dcmitype/StillImage" />
        <dc:title>elementary Symbolic Icon Theme</dc:title>
      </cc:Work>
    </rdf:RDF>
  </metadata>
  <title
     id="title9167">elementary Symbolic Icon Theme</title>
  <defs
     id="defs7386">
    <filter
       id="filter7554"
       style="color-interpolation-filters:sRGB">
      <feBlend
         mode="darken"
         in2="BackgroundImage"
         id="feBlend7556" />
    </filter>
    <filter
       id="filter7554-7"
       style="color-interpolation-filters:sRGB">
      <feBlend
         mode="darken"
         in2="BackgroundImage"
         id="feBlend7556-6" />
    </filter>
  </defs>
  <path
     style="color:#000000;clip-rule:nonzero;display:inline;overflow:visible;visibility:visible;opacity:1;isolation:auto;mix-blend-mode:normal;color-interpolation:sRGB;color-interpolation-filters:linearRGB;solid-color:#000000;solid-opacity:1;fill:#bebebe;fill-opacity:1;fill-rule:nonzero;stroke:none;stroke-width:1;stroke-linecap:butt;stroke-linejoin:miter;stroke-miterlimit:4;stroke-dasharray:none;stroke-dashoffset:0;stroke-opacity:1;marker:none;color-rendering:auto;image-rendering:auto;shape-rendering:auto;text-rendering:auto;enable-background:accumulate"
     d="m 1,2.0000003 c -0.554,0 -1,0.446 -1,1 L 0,13 c 0,0.554 0.446,1 1,1 l 14,0 c 0.554,0 1,-0.446 1,-1 l 0,-9.9999997 c 0,-0.554 -0.446,-1 -1,-1 l -14,0 z m 10.365234,3.410156 c 0.773036,0 1.363175,0.222957 1.771485,0.667969 0.410603,0.445011 0.615234,1.084952 0.615234,1.919922 0,0.832676 -0.206243,1.472616 -0.619141,1.919921 -0.412897,0.4473057 -1.004649,0.6718747 -1.77539,0.6718747 -0.770742,0 -1.3624935,-0.224569 -1.7753908,-0.6718747 -0.4128972,-0.447305 -0.6191406,-1.088517 -0.6191406,-1.925781 0,-0.837264 0.2062434,-1.477545 0.6191406,-1.917969 0.4151911,-0.442717 1.0101678,-0.664062 1.7832028,-0.664062 z m -4.6074215,0.0078 c 0.2615016,0 0.5098248,0.02986 0.7460937,0.0918 C 7.7424691,5.5717003 7.9907923,5.6590843 8.25,5.7714843 L 7.90625,6.6015623 C 7.6378668,6.4914563 7.4149095,6.4146773 7.2382812,6.3710933 c -0.1743343,-0.04358 -0.3458783,-0.06641 -0.515625,-0.06641 -0.2018608,0 -0.3570316,0.04853 -0.4648437,0.142578 -0.1078121,0.09405 -0.1601562,0.215792 -0.1601563,0.367188 0,0.09405 0.02087,0.176936 0.064453,0.248047 0.043584,0.06882 0.1129824,0.136602 0.2070312,0.203125 0.096343,0.06423 0.322184,0.181816 0.6777344,0.351562 0.4702441,0.2248 0.7924625,0.450641 0.9667969,0.677735 0.1743344,0.224799 0.2617187,0.500101 0.2617187,0.828124 0,0.454187 -0.1641636,0.812718 -0.4921875,1.0742187 -0.32573,0.261502 -0.7806374,0.392578 -1.3632812,0.392578 -0.5367664,0 -1.0109309,-0.100873 -1.4238281,-0.302734 l 0,-0.9921867 c 0.3394932,0.151395 0.6253999,0.258377 0.859375,0.320312 0.2362689,0.06194 0.4515051,0.09375 0.6464843,0.09375 0.2339751,0 0.4132402,-0.04531 0.5371094,-0.134766 0.126163,-0.08946 0.1894531,-0.221809 0.1894531,-0.398437 0,-0.09864 -0.026978,-0.186021 -0.082031,-0.261719 C 7.0914314,8.8360703 7.0101558,8.7605633 6.9023438,8.6894533 6.7968256,8.6183433 6.579977,8.5055923 6.2519531,8.3496093 5.9445741,8.2050953 5.7142364,8.0666383 5.5605469,7.9335933 5.4068574,7.8005493 5.2831612,7.6453783 5.1914062,7.4687503 5.0996513,7.2921213 5.0546875,7.0858783 5.0546875,6.8496093 c 0,-0.445011 0.1506745,-0.796161 0.4511719,-1.050781 0.3027913,-0.25462 0.7197745,-0.38086 1.2519531,-0.38086 z m -3.7929687,0.07227 1.0683593,0 0,5.0312497 -1.0683593,0 0,-5.0312498 z m 8.4003902,0.808594 c -0.424366,0 -0.745313,0.142953 -0.960937,0.429687 -0.215624,0.284441 -0.322266,0.707533 -0.322266,1.269532 0,0.561999 0.105029,0.98509 0.31836,1.269531 0.21333,0.28444 0.532664,0.427734 0.957031,0.427734 0.851027,0 1.277344,-0.566386 1.277344,-1.697265 0,-1.133174 -0.423092,-1.699219 -1.269532,-1.699219 z"
     id="rect4634"
     inkscape:connector-curvature="0" />
  <g
     id="layer9"
     label="status"
     style="display:inline"
     transform="translate(-856.487,-207.48659)" />
  <g
     id="layer10"
     style="display:inline"
     transform="translate(-856.487,-207.48659)" />
  <g
     id="layer13"
     style="display:inline"
     transform="translate(-856.487,-207.48659)" />
  <g
     id="layer14"
     transform="translate(-856.487,-207.48659)" />
  <g
     id="layer15"
     style="display:inline"
     transform="translate(-856.487,-207.48659)" />
  <g
     id="g71291"
     style="display:inline"
     transform="translate(-856.487,-207.48659)" />
</svg>
